<?xml version="1.0" standalone="no"?>
<!DOCTYPE svg PUBLIC "-//W3C//DTD SVG 1.1//EN" "http://www.w3.org/Graphics/SVG/1.1/DTD/svg11.dtd" >
<svg xmlns="http://www.w3.org/2000/svg">
<metadata>Generated by IcoMoon</metadata>
<defs>
<font id="icomoon" horiz-adv-x="1024">
<font-face units-per-em="1024" ascent="960" descent="-64" />
<missing-glyph horiz-adv-x="1024" />
<glyph unicode="&#x20;" horiz-adv-x="512" d="" />
<glyph unicode="&#xe900;" glyph-name="Arrow-Down" d="M706.351 554.58c-12.539 12.539-29.257 12.539-39.706 0l-154.645-152.555-152.555 152.555c-12.539 12.539-29.257 12.539-39.706 0-12.539-12.539-12.539-29.257 0-39.706l173.453-173.453c6.269-6.269 14.629-8.359 20.898-8.359s14.629 2.090 20.898 8.359l173.453 173.453c8.359 10.449 8.359 29.257-2.090 39.706z" />
<glyph unicode="&#xe901;" glyph-name="Arrow-Left" d="M620.8 249.6c12.8 12.8 12.8 29.867 0 40.533l-155.733 157.867 155.733 155.733c12.8 12.8 12.8 29.867 0 40.533-12.8 12.8-29.867 12.8-40.533 0l-177.067-174.933c-6.4-6.4-8.533-14.933-8.533-21.333s2.133-14.933 8.533-21.333l177.067-177.067c10.667-10.667 29.867-10.667 40.533 0z" />
<glyph unicode="&#xe902;" glyph-name="Arrow-Right" d="M405.42 264.098c-12.539 12.539-12.539 29.257 0 39.706l152.555 152.555-152.555 152.555c-12.539 12.539-12.539 29.257 0 39.706 12.539 12.539 29.257 12.539 39.706 0l173.453-173.453c6.269-6.269 8.359-14.629 8.359-20.898s-2.090-14.629-8.359-20.898l-173.453-173.453c-10.449-6.269-29.257-6.269-39.706 4.18z" />
<glyph unicode="&#xe903;" glyph-name="Arrow-Up" d="M359.445 351.869l152.555 152.555 152.555-152.555c12.539-12.539 29.257-12.539 39.706 0 12.539 12.539 12.539 29.257 0 39.706l-171.363 173.453c-6.269 6.269-14.629 8.359-20.898 8.359s-14.629-2.090-20.898-8.359l-173.453-173.453c-12.539-12.539-12.539-29.257 0-39.706 12.539-12.539 29.257-12.539 41.796 0z" />
<glyph unicode="&#xe904;" glyph-name="Back" d="M512 680.533l-232.533-232.533 232.533-232.533 40.533 40.533-162.133 162.133h354.133v59.733h-354.133l162.133 162.133z" />
<glyph unicode="&#xe905;" glyph-name="Billing" d="M576 597.333l66.133 100.267h-32c-32 0-61.867 6.4-87.467 21.333-38.4 21.333-85.333 12.8-113.067-17.067l-19.2-19.2 57.6-85.333h128zM635.733 514.133l-51.2 51.2h-147.2l-51.2-51.2c-59.733-59.733-91.733-138.667-91.733-224v-42.667c0-46.933 36.267-85.333 83.2-85.333h266.667c46.933 0 83.2 38.4 83.2 85.333v42.667c0 85.333-32 164.267-91.733 224zM588.8 285.867h-155.733v17.067c25.6 8.533 40.533 23.467 40.533 40.533 0 4.267 0 6.4-2.133 10.667h-38.4v17.067h29.867c-4.267 8.533-8.533 17.067-8.533 25.6 0 29.867 29.867 46.933 72.533 46.933 27.733 0 44.8-6.4 59.733-19.2l-21.333-14.933c-8.533 6.4-21.333 10.667-36.267 10.667-25.6 0-38.4-8.533-38.4-25.6 0-8.533 4.267-14.933 6.4-23.467h59.733v-17.067h-53.333c0-4.267 2.133-6.4 2.133-10.667 0-14.933-6.4-23.467-21.333-32v0h102.4v-25.6z" />
<glyph unicode="&#xe906;" glyph-name="Calendar-1" d="M652.8 428.8l-147.2-147.2c-4.267-4.267-8.533-4.267-12.8 0l-83.2 83.2c-4.267 4.267-4.267 8.533 0 12.8l12.8 12.8c4.267 4.267 8.533 4.267 12.8 0l64-64 128 128c4.267 4.267 8.533 4.267 12.8 0l12.8-12.8c4.267-4.267 4.267-8.533 0-12.8zM315.733 226.133h405.333v296.533h-405.333v-296.533zM426.667 578.133v83.2c0 4.267-4.267 8.533-8.533 8.533h-19.2c-4.267 0-8.533-4.267-8.533-8.533v-83.2c0-4.267 4.267-8.533 8.533-8.533h19.2c4.267-2.133 8.533 2.133 8.533 8.533zM646.4 578.133v83.2c0 4.267-4.267 8.533-8.533 8.533h-19.2c-4.267 0-8.533-4.267-8.533-8.533v-83.2c0-4.267 4.267-8.533 8.533-8.533h19.2c4.267-2.133 8.533 2.133 8.533 8.533zM757.333 595.2v-369.067c0-19.2-17.067-36.267-36.267-36.267h-405.333c-19.2 0-36.267 17.067-36.267 36.267v369.067c0 19.2 17.067 36.267 36.267 36.267h36.267v27.733c0 25.6 21.333 46.933 46.933 46.933h19.2c25.6 0 46.933-21.333 46.933-46.933v-27.733h110.933v27.733c0 25.6 21.333 46.933 46.933 46.933h19.2c25.6 0 46.933-21.333 46.933-46.933v-27.733h36.267c14.933 0 32-14.933 32-36.267z" />
<glyph unicode="&#xe907;" glyph-name="Calendar" d="M494.933 413.867h34.133c4.267 0 8.533 2.133 10.667 4.267 4.267 4.267 4.267 6.4 4.267 10.667s-2.133 8.533-4.267 10.667c-2.133 6.4-6.4 8.533-10.667 8.533h-34.133c-4.267 0-8.533-2.133-10.667-4.267-4.267-4.267-4.267-6.4-4.267-10.667s2.133-8.533 4.267-10.667c2.133-6.4 6.4-8.533 10.667-8.533zM595.2 413.867h34.133c4.267 0 8.533 2.133 10.667 4.267 4.267 4.267 4.267 6.4 4.267 10.667s-2.133 8.533-4.267 10.667c-4.267 4.267-6.4 4.267-10.667 4.267h-34.133c-4.267 0-8.533-2.133-10.667-4.267-4.267-4.267-4.267-6.4-4.267-10.667s2.133-8.533 4.267-10.667 6.4-4.267 10.667-4.267zM494.933 313.6h34.133c4.267 0 8.533 2.133 10.667 4.267 4.267 4.267 4.267 6.4 4.267 10.667s-2.133 8.533-4.267 10.667c-4.267 4.267-6.4 4.267-10.667 4.267h-34.133c-4.267 0-8.533-2.133-10.667-4.267-4.267-4.267-4.267-6.4-4.267-10.667s2.133-8.533 4.267-10.667c2.133-2.133 6.4-4.267 10.667-4.267zM733.867 635.733c-6.4 6.4-17.067 10.667-25.6 10.667h-61.867v14.933c0 4.267-2.133 8.533-6.4 12.8s-8.533 6.4-12.8 6.4c-4.267 0-8.533-2.133-12.8-6.4s-6.4-8.533-6.4-12.8v-14.933h-189.867v14.933c0 4.267-2.133 8.533-6.4 12.8s-8.533 6.4-12.8 6.4c-4.267 0-8.533-2.133-12.8-6.4s-6.4-8.533-6.4-12.8v-14.933h-61.867c-10.667 0-19.2-4.267-25.6-10.667s-10.667-17.067-10.667-25.6v-356.267c0-10.667 4.267-19.2 10.667-25.6s17.067-10.667 25.6-10.667h390.4c10.667 0 19.2 4.267 25.6 10.667s10.667 17.067 10.667 25.6v356.267c0 10.667-4.267 19.2-10.667 25.6zM706.133 253.867h-388.267v260.267h390.4v-260.267zM706.133 552.533h-388.267v57.6h61.867v-10.667c0-4.267 2.133-8.533 6.4-12.8s8.533-6.4 12.8-6.4c4.267 0 8.533 2.133 12.8 6.4s6.4 8.533 6.4 12.8v10.667h189.867v-10.667c0-4.267 2.133-8.533 6.4-12.8s8.533-6.4 12.8-6.4c4.267 0 8.533 2.133 12.8 6.4s6.4 8.533 6.4 12.8v10.667h61.867v-57.6zM396.8 313.6h34.133c4.267 0 8.533 2.133 10.667 4.267s4.267 6.4 4.267 10.667c0 4.267-2.133 8.533-4.267 10.667-4.267 4.267-6.4 4.267-10.667 4.267h-34.133c-4.267 0-8.533-2.133-10.667-4.267-4.267-4.267-4.267-6.4-4.267-10.667s2.133-8.533 4.267-10.667c2.133-2.133 4.267-4.267 10.667-4.267zM396.8 413.867h34.133c4.267 0 8.533 2.133 10.667 4.267s4.267 6.4 4.267 10.667c0 4.267-2.133 8.533-4.267 10.667-4.267 4.267-6.4 4.267-10.667 4.267h-34.133c-4.267 0-8.533-2.133-10.667-4.267-4.267-4.267-4.267-6.4-4.267-10.667s2.133-8.533 4.267-10.667c2.133-2.133 4.267-4.267 10.667-4.267z" />
<glyph unicode="&#xe908;" glyph-name="Call" d="M750.933 347.733c-85.333 68.267-119.467 34.133-151.467 2.133l-6.4-6.4c-2.133 0-10.667 0-32 12.8s-44.8 34.133-74.667 64c-83.2 83.2-78.933 106.667-78.933 108.8l6.4 6.4c34.133 32 68.267 66.133 0 151.467-23.467 29.867-46.933 42.667-70.4 44.8-36.267 2.133-61.867-25.6-83.2-49.067-4.267 0-4.267-2.133-6.4-4.267s-4.267-4.267-4.267-6.4c-25.6-25.6-27.733-78.933-2.133-142.933 25.6-68.267 74.667-140.8 140.8-206.933s138.667-115.2 206.933-140.8c29.867-10.667 59.733-17.067 83.2-17.067 25.6 0 46.933 6.4 59.733 19.2 2.133 2.133 4.267 4.267 6.4 6.4 0 2.133 2.133 2.133 2.133 4.267 21.333 21.333 49.067 46.933 49.067 83.2 0 23.467-14.933 46.933-44.8 70.4zM718.933 224c0 0 0 0 0 0-4.267-4.267-8.533-6.4-10.667-10.667-10.667-10.667-46.933-12.8-100.267 6.4-61.867 23.467-130.133 70.4-192 132.267s-108.8 130.133-132.267 192c-21.333 53.333-17.067 89.6-6.4 100.267 0 0 0 0 0 0 4.267 4.267 6.4 6.4 10.667 10.667v0c14.933 17.067 34.133 36.267 51.2 36.267h2.133c12.8 0 25.6-10.667 40.533-29.867 21.333-27.733 32-46.933 29.867-61.867-2.133-12.8-12.8-23.467-25.6-36.267l-6.4-6.4c-38.4-38.4 21.333-108.8 78.933-164.267 32-32 59.733-55.467 83.2-70.4 36.267-23.467 64-25.6 83.2-8.533l6.4 6.4c14.933 14.933 23.467 25.6 36.267 25.6 14.933 2.133 34.133-8.533 61.867-29.867 19.2-14.933 29.867-29.867 29.867-40.533-2.133-17.067-23.467-36.267-40.533-51.2z" />
<glyph unicode="&#xe909;" glyph-name="Camera" d="M635.733 462.933h87.467c10.667 0 19.2 8.533 19.2 19.2v44.8c0 10.667-8.533 19.2-19.2 19.2h-87.467c-10.667 0-19.2-8.533-19.2-19.2v-44.8c0-10.667 8.533-19.2 19.2-19.2zM652.8 499.2v6.4h51.2v-6.4h-51.2zM326.4 403.2c0-76.8 64-138.667 140.8-138.667s140.8 61.867 140.8 138.667-64 138.667-140.8 138.667-140.8-61.867-140.8-138.667zM364.8 403.2c0 55.467 46.933 102.4 104.533 102.4s104.533-44.8 104.533-102.4c0-55.467-46.933-102.4-104.533-102.4-59.733 2.133-104.533 46.933-104.533 102.4zM755.2 582.4c-19.2 19.2-46.933 29.867-74.667 29.867h-119.467v8.533c0 29.867-25.6 55.467-55.467 55.467h-104.533c-29.867 0-55.467-23.467-55.467-55.467v-8.533h-4.267c-57.6 0-104.533-46.933-104.533-102.4v-185.6c0-55.467 46.933-102.4 104.533-102.4h341.333c57.6 0 104.533 46.933 104.533 102.4v185.6c0 27.733-10.667 53.333-32 72.533zM544 573.867h138.667c17.067 0 34.133-6.4 46.933-19.2s19.2-27.733 19.2-46.933v-185.6c0-36.267-29.867-66.133-66.133-66.133h-341.333c-36.267 0-68.267 29.867-68.267 66.133v185.6c0 36.267 29.867 66.133 68.267 66.133h23.467c10.667 0 19.2 8.533 19.2 19.2v27.733c0 8.533 8.533 17.067 17.067 17.067h104.533c10.667 0 17.067-8.533 17.067-17.067v-27.733c2.133-10.667 10.667-19.2 21.333-19.2z" />
<glyph unicode="&#xe90a;" glyph-name="Cancel" d="M311.467 648.533c55.467 55.467 123.733 83.2 200.533 83.2s145.067-27.733 200.533-83.2c55.467-55.467 83.2-121.6 83.2-200.533s-27.733-145.067-83.2-200.533c-55.467-55.467-121.6-83.2-200.533-83.2s-145.067 27.733-200.533 83.2-83.2 121.6-83.2 200.533 27.733 145.067 83.2 200.533zM633.6 360.533l-78.933 78.933 81.067 78.933c4.267 4.267 4.267 8.533 0 12.8l-23.467 21.333c-2.133 2.133-4.267 2.133-6.4 2.133s-2.133 0-4.267-2.133l-81.067-78.933-81.067 78.933c-2.133 2.133-4.267 2.133-4.267 2.133-2.133 0-4.267 0-6.4-2.133l-21.333-21.333c-4.267-4.267-4.267-8.533 0-12.8l81.067-78.933-83.2-81.067c-2.133 0-2.133-2.133-2.133-4.267s0-4.267 2.133-6.4l21.333-23.467c2.133-2.133 4.267-2.133 6.4-2.133s4.267 0 6.4 2.133l78.933 81.067 81.067-78.933c2.133-2.133 4.267-2.133 4.267-2.133 2.133 0 4.267 0 6.4 2.133l21.333 21.333c2.133 2.133 2.133 4.267 2.133 6.4 2.133 2.133 2.133 4.267 0 6.4z" />
<glyph unicode="&#xe90b;" glyph-name="Cancelled-Orders-Fill" d="M661.333 625.067c-40.533 34.133-93.867 55.467-149.333 55.467-128 0-230.4-102.4-230.4-230.4 0-53.333 17.067-102.4 51.2-142.933l4.267-6.4 330.667 320-6.4 4.267zM529.067 563.2v10.667h19.2c8.533 0 14.933 6.4 14.933 14.933s-6.4 14.933-14.933 14.933h-66.133c-8.533 0-14.933-6.4-14.933-14.933s6.4-14.933 14.933-14.933h19.2v-10.667c-14.933-2.133-29.867-4.267-42.667-10.667l-32-17.067c-40.533-27.733-64-74.667-64-121.6v-21.333c-8.533-6.4-12.8-14.933-12.8-25.6 0-8.533 4.267-17.067 8.533-23.467l-12.8-12.8c-23.467 34.133-36.267 74.667-36.267 115.2 0 110.933 89.6 202.667 202.667 202.667 44.8 0 85.333-12.8 119.467-40.533l-59.733-57.6c-12.8 6.4-27.733 10.667-42.667 12.8zM736 672c-59.733 59.733-138.667 91.733-224 91.733s-164.267-32-224-91.733c-59.733-59.733-91.733-138.667-91.733-224s32-164.267 91.733-224c59.733-59.733 138.667-91.733 224-91.733s164.267 32 224 91.733c59.733 59.733 91.733 138.667 91.733 224s-32 164.267-91.733 224zM797.867 448c0-76.8-29.867-147.2-83.2-200.533s-125.867-83.2-200.533-83.2c-76.8 0-147.2 29.867-200.533 83.2s-83.2 125.867-83.2 200.533c0 157.867 128 285.867 285.867 285.867 153.6 0 281.6-128 281.6-285.867zM691.2 590.933l-328.533-317.867 6.4-4.267c40.533-32 91.733-51.2 142.933-51.2 61.867 0 119.467 23.467 162.133 68.267 42.667 42.667 68.267 102.4 68.267 162.133 0 51.2-14.933 98.133-46.933 138.667l-4.267 4.267zM646.4 337.067c17.067 0 32 14.933 32 32 0 10.667-4.267 19.2-12.8 25.6v21.333c0 34.133-12.8 68.267-34.133 96l51.2 49.067c21.333-32 32-70.4 32-110.933 0-53.333-21.333-104.533-59.733-142.933s-89.6-59.733-142.933-59.733c-42.667 0-81.067 12.8-115.2 36.267l55.467 53.333h194.133z" />
<glyph unicode="&#xe90c;" glyph-name="Cancelled-Orders" d="M716.8 652.8c-55.467 55.467-128 85.333-204.8 85.333s-151.467-29.867-204.8-85.333c-55.467-55.467-85.333-128-85.333-204.8s29.867-151.467 85.333-204.8c55.467-55.467 128-85.333 204.8-85.333s149.333 29.867 204.8 85.333 85.333 128 85.333 204.8c0 76.8-29.867 149.333-85.333 204.8zM772.267 448c0-70.4-27.733-134.4-76.8-183.467s-115.2-76.8-183.467-76.8c-70.4 0-134.4 27.733-183.467 76.8s-76.8 115.2-76.8 183.467c0 142.933 117.333 260.267 260.267 260.267s260.267-117.333 260.267-260.267zM512 686.933v0c-132.267 0-238.933-106.667-238.933-238.933 0-55.467 19.2-108.8 55.467-151.467 8.533-10.667 19.2-21.333 32-32 42.667-34.133 96-55.467 151.467-55.467 64 0 123.733 25.6 168.533 70.4s70.4 104.533 70.4 168.533c0 132.267-106.667 238.933-238.933 238.933zM388.267 411.733c0 40.533 19.2 78.933 53.333 102.4l25.6 14.933c27.733 10.667 57.6 12.8 85.333 4.267l-140.8-136.533h-25.6v14.933zM573.867 554.667c-14.933 6.4-29.867 10.667-46.933 10.667v10.667h21.333c8.533 0 14.933 6.4 14.933 14.933s-6.4 14.933-14.933 14.933h-70.4c-8.533 0-14.933-6.4-14.933-14.933s6.4-14.933 14.933-14.933h21.333v-10.667c-14.933-2.133-29.867-4.267-44.8-10.667l-29.867-17.067c-40.533-29.867-66.133-76.8-66.133-125.867v-21.333c-8.533-6.4-12.8-14.933-12.8-25.6 0-8.533 4.267-17.067 8.533-23.467l-12.8-12.8c-25.6 34.133-38.4 76.8-38.4 119.467 0 115.2 93.867 209.067 209.067 209.067 44.8 0 89.6-14.933 125.867-42.667l-64-59.733zM377.6 366.933h4.267l-6.4-6.4c0 0-2.133 2.133-2.133 2.133 0 4.267 2.133 4.267 4.267 4.267zM659.2 595.2c2.133-2.133 6.4-6.4 8.533-10.667l-298.667-290.133c-4.267 2.133-6.4 6.4-8.533 8.533l298.667 292.267zM516.267 396.8l98.133 93.867c19.2-21.333 27.733-49.067 27.733-78.933v-14.933h-125.867zM650.667 360.533h-172.8l6.4 6.4h164.267c2.133 0 2.133-2.133 2.133-4.267 2.133 0 2.133-2.133 0-2.133zM450.133 332.8h200.533c17.067 0 32 14.933 32 32 0 10.667-4.267 19.2-12.8 25.6v21.333c0 36.267-12.8 70.4-36.267 98.133l53.333 51.2c23.467-34.133 34.133-74.667 34.133-115.2 0-55.467-21.333-108.8-61.867-147.2-40.533-40.533-91.733-61.867-147.2-61.867-42.667 0-85.333 12.8-119.467 38.4l57.6 57.6z" />
<glyph unicode="&#xe90d;" glyph-name="Card" d="M782.933 620.8c-10.667 10.667-23.467 17.067-38.4 17.067h-462.933c-14.933 0-27.733-6.4-38.4-17.067s-17.067-23.467-17.067-38.4v-266.667c0-14.933 6.4-27.733 17.067-38.4s23.467-17.067 38.4-17.067h460.8c14.933 0 27.733 6.4 38.4 17.067s17.067 23.467 17.067 38.4v264.533c0 17.067-4.267 29.867-14.933 40.533zM757.333 315.733c0-4.267-2.133-8.533-4.267-10.667s-6.4-6.4-10.667-6.4h-460.8c-4.267 0-8.533 2.133-10.667 4.267s-4.267 6.4-4.267 10.667v157.867h492.8v-155.733zM757.333 548.267h-490.667v34.133c0 4.267 2.133 8.533 4.267 10.667s6.4 4.267 10.667 4.267h460.8c4.267 0 8.533-2.133 10.667-4.267s4.267-6.4 4.267-10.667v-34.133z" />
<glyph unicode="&#xe90e;" glyph-name="Cash" d="M780.8 416c12.8-19.2 6.4-44.8-12.8-57.6l-12.8-6.4c-12.8-8.533-21.333-23.467-19.2-40.533l2.133-14.933c4.267-23.467-12.8-44.8-34.133-44.8h-14.933c-14.933 0-29.867-12.8-34.133-27.733l-4.267-14.933c-6.4-23.467-29.867-34.133-49.067-25.6l-12.8 6.4c-14.933 6.4-32 2.133-40.533-10.667l-8.533-10.667c-14.933-17.067-40.533-17.067-55.467 0l-8.533 10.667c-10.667 12.8-27.733 17.067-42.667 10.667l-12.8-6.4c-21.333-8.533-42.667 2.133-49.067 25.6l-4.267 14.933c-4.267 14.933-17.067 27.733-34.133 27.733h-14.933c-21.333 0-38.4 21.333-34.133 44.8l2.133 14.933c2.133 17.067-4.267 32-19.2 40.533l-10.667 2.133c-19.2 10.667-25.6 38.4-12.8 55.467l8.533 12.8c8.533 12.8 8.533 32 0 44.8l-8.533 12.8c-12.8 19.2-6.4 44.8 12.8 57.6l12.8 6.4c12.8 8.533 21.333 23.467 19.2 40.533l-2.133 14.933c-4.267 23.467 12.8 44.8 34.133 44.8h14.933c14.933 0 29.867 12.8 34.133 27.733l4.267 14.933c6.4 23.467 29.867 34.133 49.067 25.6l12.8-6.4c14.933-6.4 32-2.133 40.533 10.667l8.533 10.667c14.933 17.067 40.533 17.067 55.467 0l8.533-10.667c10.667-12.8 27.733-17.067 42.667-10.667l12.8 6.4c21.333 8.533 42.667-2.133 49.067-25.6l4.267-14.933c4.267-14.933 17.067-27.733 34.133-27.733h14.933c21.333 0 38.4-21.333 34.133-44.8l-2.133-14.933c-2.133-17.067 4.267-32 19.2-40.533l12.8-6.4c19.2-10.667 25.6-38.4 12.8-55.467l-8.533-12.8c-8.533-12.8-8.533-32 0-44.8l6.4-8.533zM590.933 364.8c-4.267-6.4-19.2-14.933-36.267-14.933-10.667 0-19.2 4.267-25.6 6.4-8.533 4.267-17.067 8.533-29.867 8.533-6.4 0-14.933-2.133-19.2-4.267 14.933 10.667 29.867 27.733 29.867 49.067 0 6.4 0 10.667-2.133 17.067h44.8v21.333h-57.6c-2.133 4.267-6.4 6.4-8.533 10.667-10.667 12.8-21.333 27.733-21.333 49.067 0 29.867 25.6 49.067 53.333 49.067 23.467 0 42.667-14.933 49.067-32l25.6 14.933c-14.933 27.733-42.667 42.667-76.8 42.667-46.933 0-85.333-32-85.333-74.667 0-25.6 12.8-42.667 25.6-57.6 0-2.133 2.133-2.133 2.133-2.133h-40.533v-21.333h55.467c4.267-6.4 6.4-14.933 6.4-23.467 0-23.467-19.2-42.667-51.2-57.6l10.667-23.467c14.933 8.533 32 14.933 44.8 14.933s21.333-4.267 29.867-8.533c8.533-4.267 19.2-8.533 36.267-8.533 23.467 0 40.533 8.533 51.2 17.067l-10.667 27.733z" />
<glyph unicode="&#xe90f;" glyph-name="Chair" d="M610.133 426.667h-164.267c-2.133 0-4.267 2.133-4.267 4.267v232.533c0 14.933-12.8 29.867-29.867 29.867s-27.733-14.933-27.733-29.867v-428.8c0-14.933 12.8-29.867 29.867-29.867s29.867 12.8 29.867 29.867v132.267c0 2.133 2.133 4.267 4.267 4.267h132.267c2.133 0 4.267-2.133 4.267-4.267v-132.267c0-14.933 12.8-29.867 27.733-29.867s27.733 12.8 27.733 29.867v164.267c0 14.933-12.8 27.733-29.867 27.733z" />
<glyph unicode="&#xe910;" glyph-name="Change-PIN" d="M674.133 320c-2.133-2.133-4.267-2.133-8.533-2.133h-12.8l8.533-10.667c2.133-2.133 2.133-4.267 2.133-4.267 0-2.133-2.133-6.4-4.267-8.533s-6.4-4.267-8.533-4.267c-2.133 0-4.267 0-4.267 2.133-2.133 0-2.133 2.133-4.267 4.267l-6.4 12.8-6.4-12.8c-2.133-4.267-4.267-4.267-8.533-4.267-2.133 0-6.4 2.133-8.533 4.267s-4.267 4.267-4.267 8.533c0 2.133 0 4.267 2.133 4.267l8.533 10.667h-12.8c-4.267 0-6.4 0-8.533 2.133s-2.133 4.267-2.133 8.533c0 2.133 0 6.4 2.133 8.533s4.267 4.267 6.4 4.267h12.8l-6.4 10.667c-2.133 2.133-2.133 4.267-2.133 4.267 0 2.133 2.133 6.4 4.267 8.533s6.4 4.267 8.533 4.267c4.267 0 6.4-2.133 8.533-4.267l6.4-12.8 6.4 12.8c2.133 4.267 4.267 4.267 8.533 4.267 2.133 0 6.4-2.133 8.533-4.267s4.267-4.267 4.267-8.533c0-2.133 0-4.267-2.133-4.267l-6.4-10.667h12.8c4.267 0 6.4 0 8.533-2.133s2.133-4.267 2.133-8.533c0-8.533-2.133-10.667-4.267-12.8zM552.533 320c-2.133-2.133-4.267-2.133-8.533-2.133h-12.8l8.533-10.667c2.133-2.133 2.133-4.267 2.133-4.267 0-2.133-2.133-6.4-4.267-8.533s-6.4-4.267-8.533-4.267c-2.133 0-4.267 0-4.267 2.133-2.133 0-2.133 2.133-4.267 4.267l-6.4 12.8-6.4-12.8c-2.133-4.267-4.267-4.267-8.533-4.267-2.133 0-6.4 2.133-8.533 4.267s-4.267 4.267-4.267 8.533c0 2.133 0 4.267 2.133 4.267l8.533 10.667h-12.8c-4.267 0-6.4 0-8.533 2.133s-2.133 4.267-2.133 8.533c0 2.133 0 6.4 2.133 8.533s4.267 4.267 6.4 4.267h12.8l-6.4 10.667c-2.133 2.133-2.133 4.267-2.133 4.267 0 2.133 2.133 6.4 4.267 8.533s6.4 4.267 8.533 4.267c4.267 0 6.4-2.133 8.533-4.267l6.4-12.8 6.4 12.8c2.133 4.267 4.267 4.267 8.533 4.267 2.133 0 6.4-2.133 8.533-4.267s4.267-4.267 4.267-8.533c0-2.133 0-4.267-2.133-4.267l-6.4-10.667h12.8c4.267 0 6.4 0 8.533-2.133s2.133-4.267 2.133-8.533c-2.133-8.533-2.133-10.667-4.267-12.8zM430.933 320c-2.133-2.133-4.267-2.133-8.533-2.133h-12.8l8.533-10.667c2.133-2.133 2.133-4.267 2.133-4.267 0-2.133-2.133-6.4-4.267-8.533s-6.4-4.267-8.533-4.267c-2.133 0-4.267 0-4.267 2.133-2.133 0-2.133 2.133-4.267 4.267l-6.4 12.8-6.4-12.8c-2.133-4.267-4.267-4.267-8.533-4.267-2.133 0-6.4 2.133-8.533 4.267s-4.267 4.267-4.267 8.533c0 2.133 0 4.267 2.133 4.267l8.533 10.667h-12.8c-4.267 0-6.4 0-8.533 2.133s-2.133 4.267-2.133 8.533c0 2.133 0 6.4 2.133 8.533s4.267 4.267 6.4 4.267h12.8l-6.4 10.667c-2.133 2.133-2.133 4.267-2.133 4.267 0 2.133 2.133 6.4 4.267 8.533s6.4 4.267 8.533 4.267c4.267 0 6.4-2.133 8.533-4.267l6.4-12.8 6.4 12.8c2.133 4.267 4.267 4.267 8.533 4.267 2.133 0 6.4-2.133 8.533-4.267s4.267-4.267 4.267-8.533c0-2.133 0-4.267-2.133-4.267l-6.4-10.667h12.8c4.267 0 6.4 0 8.533-2.133s2.133-4.267 2.133-8.533c-2.133-8.533-2.133-10.667-4.267-12.8zM512 646.4c46.933 0 85.333-38.4 85.333-85.333v-81.067h-170.667v81.067c0 46.933 38.4 85.333 85.333 85.333zM672 477.867v81.067c0 87.467-70.4 160-160 160-87.467 0-160-70.4-160-160v-81.067c-27.733-4.267-49.067-27.733-49.067-53.333v-194.133c0-29.867 27.733-53.333 61.867-53.333h294.4c34.133 0 61.867 23.467 61.867 53.333v194.133c0 27.733-21.333 49.067-49.067 53.333z" />
<glyph unicode="&#xe911;" glyph-name="Chat" d="M750.933 558.933c-12.8 29.867-32 55.467-55.467 76.8s-51.2 40.533-83.2 51.2c-32 12.8-66.133 19.2-100.267 19.2s-68.267-6.4-100.267-19.2c-32-12.8-59.733-29.867-83.2-51.2-23.467-23.467-42.667-49.067-55.467-76.8-12.8-29.867-21.333-61.867-21.333-96 0-29.867 6.4-59.733 17.067-85.333 10.667-27.733 27.733-53.333 46.933-74.667l10.667-98.133c2.133-6.4 4.267-12.8 10.667-14.933 2.133-2.133 6.4-2.133 8.533-2.133 4.267 0 6.4 0 10.667 2.133l74.667 42.667c25.6-8.533 53.333-12.8 81.067-12.8 34.133 0 68.267 6.4 100.267 19.2s59.733 29.867 83.2 53.333c23.467 21.333 42.667 49.067 55.467 76.8 12.8 29.867 21.333 61.867 21.333 96 0 32-6.4 64-21.333 93.867zM512 260.267c-25.6 0-51.2 4.267-76.8 12.8-6.4 2.133-10.667 2.133-17.067-2.133l-55.467-32-8.533 74.667c0 4.267-2.133 8.533-6.4 12.8-19.2 19.2-32 40.533-42.667 64s-14.933 49.067-14.933 74.667c0 27.733 6.4 53.333 17.067 78.933 10.667 23.467 27.733 46.933 46.933 64 19.2 19.2 42.667 34.133 70.4 44.8s55.467 14.933 85.333 14.933c29.867 0 59.733-6.4 85.333-14.933 25.6-10.667 49.067-25.6 70.4-44.8 19.2-19.2 36.267-40.533 46.933-64 10.667-25.6 17.067-51.2 17.067-78.933s-6.4-53.333-17.067-78.933c-10.667-23.467-27.733-46.933-46.933-64-19.2-19.2-44.8-34.133-70.4-42.667-23.467-12.8-53.333-19.2-83.2-19.2zM401.067 494.933c-8.533 0-14.933-2.133-21.333-8.533s-8.533-12.8-8.533-21.333 2.133-14.933 8.533-21.333c6.4-6.4 12.8-8.533 21.333-8.533s14.933 2.133 21.333 8.533c6.4 6.4 8.533 12.8 8.533 21.333s-2.133 14.933-8.533 21.333c-6.4 4.267-12.8 8.533-21.333 8.533zM512 494.933c-8.533 0-14.933-2.133-21.333-8.533s-8.533-12.8-8.533-21.333 2.133-14.933 8.533-21.333c6.4-6.4 12.8-8.533 21.333-8.533s14.933 2.133 21.333 8.533c6.4 6.4 8.533 12.8 8.533 21.333s-2.133 14.933-8.533 21.333c-6.4 4.267-12.8 8.533-21.333 8.533zM622.933 494.933c-8.533 0-14.933-2.133-21.333-8.533s-8.533-12.8-8.533-21.333 2.133-14.933 8.533-21.333c6.4-6.4 12.8-8.533 21.333-8.533s14.933 2.133 21.333 8.533c6.4 6.4 8.533 12.8 8.533 21.333s-2.133 14.933-8.533 21.333-12.8 8.533-21.333 8.533z" />
<glyph unicode="&#xe912;" glyph-name="Check-Box-fill" d="M676.267 661.333c12.8 0 23.467-4.267 34.133-14.933s14.933-21.333 14.933-34.133v-330.667c0-12.8-4.267-23.467-14.933-34.133s-21.333-14.933-34.133-14.933h-328.533c-12.8 0-23.467 4.267-34.133 14.933s-14.933 21.333-14.933 34.133v330.667c0 12.8 4.267 23.467 14.933 34.133s21.333 14.933 34.133 14.933h328.533zM465.067 328.533l213.333 213.333-34.133 34.133-179.2-179.2-85.333 85.333-32-34.133 117.333-119.467z" />
<glyph unicode="&#xe913;" glyph-name="Check-Box" d="M676.267 661.333c12.8 0 23.467-4.267 34.133-14.933s14.933-21.333 14.933-34.133v-330.667c0-12.8-4.267-23.467-14.933-34.133s-21.333-14.933-34.133-14.933h-328.533c-12.8 0-23.467 4.267-34.133 14.933s-14.933 21.333-14.933 34.133v330.667c0 12.8 4.267 23.467 14.933 34.133s21.333 14.933 34.133 14.933h328.533z" />
<glyph unicode="&#xe914;" glyph-name="Check" d="M311.467 648.533c55.467 55.467 121.6 83.2 200.533 83.2s145.067-27.733 200.533-83.2c55.467-55.467 83.2-121.6 83.2-200.533s-27.733-145.067-83.2-200.533c-55.467-55.467-121.6-83.2-200.533-83.2s-145.067 27.733-200.533 83.2c-55.467 55.467-83.2 121.6-83.2 200.533s27.733 145.067 83.2 200.533zM462.933 332.8l206.933 209.067-27.733 27.733-194.133-194.133-72.533 72.533-27.733-27.733 87.467-87.467c4.267-4.267 8.533-6.4 14.933-6.4 4.267 0 8.533 2.133 12.8 6.4z" />
<glyph unicode="&#xe915;" glyph-name="Clock" d="M753.067 550.4c-12.8 32-32 59.733-55.467 83.2s-51.2 42.667-83.2 55.467c-32 12.8-66.133 21.333-102.4 21.333s-70.4-6.4-102.4-21.333c-32-12.8-59.733-32-83.2-55.467s-42.667-51.2-55.467-83.2c-12.8-32-21.333-66.133-21.333-102.4s6.4-70.4 21.333-102.4c12.8-32 32-59.733 55.467-83.2s51.2-42.667 83.2-55.467c32-12.8 66.133-21.333 102.4-21.333s70.4 6.4 102.4 21.333c32 12.8 59.733 32 83.2 55.467s42.667 51.2 55.467 83.2c12.8 32 21.333 66.133 21.333 102.4s-8.533 70.4-21.333 102.4zM716.8 360.533c-10.667-27.733-27.733-51.2-46.933-70.4s-42.667-36.267-70.4-46.933c-27.733-10.667-55.467-17.067-87.467-17.067s-59.733 6.4-87.467 17.067c-27.733 10.667-51.2 27.733-70.4 46.933s-36.267 44.8-46.933 70.4c-10.667 27.733-17.067 55.467-17.067 87.467 0 29.867 6.4 59.733 17.067 87.467s27.733 51.2 46.933 70.4c19.2 19.2 42.667 36.267 70.4 46.933s55.467 17.067 87.467 17.067c29.867 0 59.733-6.4 87.467-17.067s51.2-27.733 70.4-46.933c19.2-19.2 36.267-42.667 46.933-70.4s17.067-55.467 17.067-87.467-4.267-59.733-17.067-87.467zM531.2 456.533v153.6c0 4.267-2.133 10.667-6.4 12.8-8.533 8.533-19.2 8.533-27.733 0-4.267-4.267-6.4-8.533-6.4-12.8v-162.133c0-2.133 0-6.4 2.133-8.533 0-2.133 2.133-4.267 4.267-6.4l81.067-81.067c4.267-4.267 8.533-6.4 12.8-6.4 6.4 0 10.667 2.133 12.8 6.4 4.267 4.267 6.4 8.533 6.4 12.8 0 6.4-2.133 10.667-6.4 12.8l-72.533 78.933z" />
<glyph unicode="&#xe916;" glyph-name="Close" d="M699.733 593.067l-42.667 42.667-145.067-147.2-145.067 147.2-42.667-42.667 147.2-145.067-147.2-145.067 42.667-42.667 145.067 147.2 142.933-142.933 2.133-4.267 42.667 42.667-147.2 145.067z" />
<glyph unicode="&#xe917;" glyph-name="Collection" d="M635.733 230.4h-247.467c-25.6 0-46.933 14.933-46.933 36.267l27.733 243.2h36.267v-40.533c0-8.533 12.8-12.8 17.067-12.8 8.533 0 17.067 4.267 17.067 12.8v40.533h142.933v-40.533c0-8.533 10.667-12.8 17.067-12.8 8.533 0 17.067 4.267 17.067 12.8v40.533h36.267l27.733-243.2c2.133-19.2-19.2-36.267-44.8-36.267zM512 680.533c38.4 0 70.4-83.2 70.4-119.467h-142.933c2.133 36.267 34.133 119.467 72.533 119.467zM733.867 253.867l-32 290.133c0 8.533-8.533 12.8-14.933 12.8h-64c0 57.6-49.067 157.867-108.8 157.867s-108.8-98.133-108.8-157.867h-64c-8.533 0-14.933-4.267-14.933-12.8l-32-290.133c0 0 0 0 0-2.133 0-38.4 36.267-70.4 83.2-70.4h275.2c42.667 0 81.067 32 81.067 72.533v0z" />
<glyph unicode="&#xe918;" glyph-name="Contact" d="M298.667 428.8h61.867c6.4 0 10.667 2.133 14.933 6.4s6.4 8.533 6.4 14.933-2.133 10.667-6.4 14.933-8.533 6.4-14.933 6.4h-61.867c-6.4 0-10.667-2.133-14.933-6.4s-6.4-8.533-6.4-14.933 2.133-10.667 6.4-14.933c4.267-6.4 8.533-6.4 14.933-6.4zM298.667 520.533h61.867c6.4 0 10.667 2.133 14.933 6.4s6.4 8.533 6.4 14.933-2.133 10.667-6.4 14.933c-4.267 4.267-8.533 6.4-14.933 6.4h-61.867c-6.4 0-10.667-2.133-14.933-6.4s-6.4-8.533-6.4-14.933 2.133-10.667 6.4-14.933 8.533-6.4 14.933-6.4zM733.867 669.867c-6.4 6.4-17.067 10.667-27.733 10.667h-356.267c-10.667 0-19.2-4.267-27.733-10.667-6.4-6.4-10.667-17.067-10.667-27.733v-29.867c0-6.4 2.133-10.667 6.4-14.933s8.533-6.4 14.933-6.4 10.667 2.133 14.933 6.4c4.267 4.267 6.4 8.533 6.4 14.933v27.733h354.133v-388.267h-356.267v27.733c0 6.4-2.133 10.667-6.4 14.933s-8.533 6.4-14.933 6.4c-6.4 0-10.667-2.133-14.933-6.4s-6.4-8.533-6.4-14.933v-29.867c0-10.667 4.267-19.2 10.667-27.733 6.4-6.4 17.067-10.667 27.733-10.667h356.267c10.667 0 19.2 4.267 27.733 10.667 6.4 6.4 10.667 17.067 10.667 27.733v392.533c2.133 10.667 0 21.333-8.533 27.733zM428.8 337.067c-2.133-6.4 0-10.667 2.133-14.933s6.4-6.4 12.8-8.533c2.133 0 2.133 0 4.267 0 4.267 0 8.533 2.133 12.8 4.267s6.4 6.4 6.4 10.667c4.267 19.2 12.8 34.133 27.733 46.933s32 19.2 51.2 19.2 36.267-6.4 51.2-19.2c14.933-12.8 23.467-27.733 27.733-46.933 0-4.267 2.133-8.533 6.4-10.667s8.533-4.267 12.8-4.267c2.133 0 2.133 0 4.267 0 6.4 0 10.667 4.267 12.8 8.533s4.267 8.533 4.267 14.933c-6.4 27.733-19.2 51.2-40.533 68.267-8.533 6.4-17.067 12.8-27.733 17.067 4.267 2.133 8.533 6.4 12.8 10.667 17.067 17.067 25.6 36.267 25.6 61.867s-8.533 44.8-25.6 61.867-38.4 25.6-61.867 25.6c-23.467 0-44.8-8.533-59.733-25.6-17.067-17.067-25.6-36.267-25.6-61.867s8.533-44.8 25.6-61.867c4.267-4.267 8.533-6.4 12.8-10.667-10.667-4.267-19.2-10.667-27.733-17.067-27.733-17.067-40.533-40.533-44.8-68.267zM512 529.067c8.533 8.533 19.2 12.8 32 12.8s23.467-4.267 32-12.8 12.8-19.2 12.8-32-4.267-23.467-12.8-32c-8.533-8.533-19.2-12.8-32-12.8s-23.467 4.267-32 12.8c-8.533 8.533-12.8 19.2-12.8 32s4.267 23.467 12.8 32zM373.333 341.333c4.267 4.267 6.4 8.533 6.4 14.933s-2.133 10.667-6.4 14.933c-4.267 4.267-8.533 6.4-14.933 6.4h-59.733c-6.4 0-10.667-2.133-14.933-6.4s-6.4-8.533-6.4-14.933c0-6.4 2.133-10.667 6.4-14.933s8.533-6.4 14.933-6.4h61.867c6.4 0 10.667 2.133 12.8 6.4z" />
<glyph unicode="&#xe919;" glyph-name="Coupons" d="M650.667 381.867c0 17.067 12.8 29.867 29.867 29.867s29.867-12.8 29.867-29.867c0-17.067-12.8-29.867-29.867-29.867s-29.867 12.8-29.867 29.867zM537.6 360.533l128 192c4.267 6.4 14.933 8.533 21.333 4.267s8.533-14.933 4.267-21.333l-128-192c-4.267-6.4-14.933-8.533-21.333-4.267-8.533 4.267-10.667 14.933-4.267 21.333zM548.267 544c17.067 0 29.867-12.8 29.867-29.867s-12.8-29.867-29.867-29.867c-17.067 0-29.867 12.8-29.867 29.867s12.8 29.867 29.867 29.867zM405.333 488.533c0-10.667-8.533-19.2-19.2-19.2s-19.2 8.533-19.2 19.2v40.533c0 10.667 8.533 19.2 19.2 19.2s19.2-8.533 19.2-19.2v-40.533zM405.333 369.067c0-10.667-8.533-19.2-19.2-19.2s-19.2 8.533-19.2 19.2v40.533c0 10.667 8.533 19.2 19.2 19.2s19.2-8.533 19.2-19.2v-40.533zM817.067 646.4c0 10.667-8.533 19.2-19.2 19.2h-390.4v-59.733c0-10.667-8.533-19.2-19.2-19.2s-19.2 8.533-19.2 19.2v59.733h-140.8c-10.667 0-19.2-8.533-19.2-19.2v-119.467c0-10.667 8.533-19.2 19.2-19.2 32 0 59.733-25.6 59.733-59.733 0-32-25.6-59.733-59.733-59.733-10.667 0-19.2-8.533-19.2-19.2v-119.467c0-10.667 8.533-19.2 19.2-19.2h138.667v59.733c0 10.667 8.533 19.2 19.2 19.2s19.2-8.533 19.2-19.2v-59.733h392.533c10.667 0 19.2 8.533 19.2 19.2v396.8z" />
<glyph unicode="&#xe91a;" glyph-name="Customer" d="M753.067 219.733v-8.533h-149.333v46.933l2.133-2.133c4.267-4.267 8.533-8.533 14.933-8.533 4.267 0 8.533 2.133 12.8 4.267l4.267 2.133 19.2 14.933c0 0 2.133 0 2.133 0s2.133 0 2.133 0l19.2-14.933 4.267-2.133c4.267-2.133 8.533-4.267 12.8-4.267 6.4 0 12.8 2.133 14.933 8.533l2.133 4.267 21.333 29.867 32-12.8 23.467-10.667-21.333-17.067c-10.667-6.4-17.067-17.067-17.067-29.867v0zM633.6 503.467c23.467 4.267 49.067 8.533 70.4 23.467 4.267-4.267 10.667-10.667 14.933-14.933 10.667-10.667 23.467-21.333 23.467-29.867 0-4.267 0-8.533 0-12.8l-6.4-68.267c0-8.533-6.4-17.067-14.933-21.333l-21.333-12.8c-4.267-2.133-6.4-6.4-4.267-12.8v-21.333c0-2.133 0-2.133 0-4.267l-23.467-19.2-12.8-6.4-12.8 6.4-23.467 19.2c0 2.133 0 2.133 0 4.267v19.2c0 0 0 0 0 0 2.133 4.267 0 10.667-4.267 12.8l-21.333 12.8c-8.533 4.267-12.8 12.8-14.933 21.333l-6.4 55.467c-2.133 36.267 19.2 42.667 57.6 49.067v0zM264.533 273.067l-29.867 29.867c0 0 2.133 0 2.133 2.133l66.133 23.467 29.867-38.4c4.267-6.4 10.667-8.533 17.067-8.533s10.667 2.133 14.933 6.4l27.733 27.733c0 0 0 0 2.133 0 0 0 0 0 2.133 0l27.733-27.733c4.267-4.267 10.667-6.4 14.933-6.4 6.4 0 12.8 2.133 17.067 8.533l29.867 38.4 32-12.8 34.133-12.8c0 0 2.133 0 2.133-2.133l-29.867-29.867c-4.267-4.267-6.4-8.533-8.533-12.8-4.267-8.533-8.533-17.067-8.533-27.733v-21.333h-226.133v21.333c0 17.067-6.4 32-17.067 42.667v0zM292.267 526.933c0 2.133 2.133 6.4 4.267 8.533l8.533 8.533c6.4 6.4 10.667 14.933 10.667 23.467v27.733c12.8 2.133 36.267 8.533 64 8.533 38.4 0 70.4-8.533 93.867-25.6 0 0 2.133-2.133 2.133-2.133v-6.4c0-8.533 4.267-17.067 10.667-23.467l8.533-8.533c2.133-2.133 4.267-4.267 4.267-10.667v-10.667c0-32-14.933-61.867-40.533-81.067-2.133-2.133-4.267-6.4-4.267-8.533v-42.667l-42.667-25.6-14.933-8.533-14.933 8.533-42.667 25.6v42.667c0 4.267-2.133 6.4-4.267 8.533-25.6 19.2-40.533 49.067-40.533 81.067v10.667zM806.4 285.867l-23.467 10.667c2.133 0 2.133 2.133 4.267 2.133 4.267 2.133 6.4 6.4 6.4 12.8 0 134.4 17.067 322.133-136.533 322.133-142.933 0-138.667-162.133-136.533-292.267l-40.533 14.933-6.4 12.8c-2.133 4.267-8.533 6.4-12.8 4.267v51.2c27.733 21.333 44.8 53.333 44.8 89.6v17.067c0 4.267 0 6.4 2.133 10.667l4.267 10.667c4.267 10.667 6.4 23.467 6.4 36.267v93.867c0 12.8-10.667 23.467-23.467 23.467h-136.533c-51.2 0-91.733-40.533-91.733-91.733v-27.733c0-12.8 2.133-23.467 6.4-36.267l4.267-10.667c2.133-4.267 2.133-6.4 2.133-10.667v-17.067c0-36.267 17.067-70.4 44.8-89.6v-51.2c-4.267 2.133-10.667 0-12.8-4.267l-6.4-12.8-76.8-27.733c-19.2-8.533-32-27.733-32-49.067v-70.4c0-8.533 8.533-17.067 17.067-17.067h590.933c12.8 0 25.6 10.667 25.6 25.6v38.4c-2.133 12.8-10.667 25.6-23.467 32v0z" />
<glyph unicode="&#xe91b;" glyph-name="Dashboard" d="M454.4 695.467c19.2 0 36.267-17.067 36.267-36.267v-93.867c0-19.2-17.067-36.267-36.267-36.267h-155.733c-19.2 0-36.267 17.067-36.267 36.267v93.867c0 19.2 17.067 36.267 36.267 36.267h155.733zM454.4 488.533c19.2 0 36.267-17.067 36.267-36.267v-217.6c0-19.2-17.067-36.267-36.267-36.267h-155.733c-19.2 0-36.267 17.067-36.267 36.267v217.6c0 19.2 17.067 36.267 36.267 36.267h155.733zM723.2 364.8c19.2 0 36.267-17.067 36.267-36.267v-93.867c0-19.2-17.067-36.267-36.267-36.267h-155.733c-19.2 0-36.267 17.067-36.267 36.267v93.867c0 19.2 17.067 36.267 36.267 36.267h155.733zM723.2 695.467c19.2 0 36.267-17.067 36.267-36.267v-217.6c0-19.2-17.067-36.267-36.267-36.267h-155.733c-19.2 0-36.267 17.067-36.267 36.267v217.6c0 19.2 17.067 36.267 36.267 36.267h155.733z" />
<glyph unicode="&#xe91c;" glyph-name="Delete" d="M454.4 512h34.133v-241.067h-34.133v241.067zM535.467 512h34.133v-241.067h-34.133v241.067zM661.333 627.2h-59.733v38.4c0 8.533-6.4 17.067-17.067 17.067 0 0 0 0-2.133 0 0 0 0 0-2.133 0h-145.067c-8.533 0-17.067-6.4-17.067-17.067v-38.4h-55.467c-19.2 0-34.133-14.933-34.133-34.133v-53.333h27.733v-292.267c0-19.2 14.933-34.133 34.133-34.133h245.333c19.2 0 34.133 14.933 34.133 34.133v292.267h27.733v53.333c-2.133 19.2-17.067 34.133-36.267 34.133zM635.733 539.733v-292.267c0 0 0 0 0 0s0 0 0 0h-247.467c0 0 0 0 0 0s0 0 0 0 0 0 0 0v292.267h247.467zM569.6 648.533v-21.333h-115.2v21.333h115.2zM661.333 593.067v-21.333h-298.667v21.333c0 0 0 0 0 0h298.667c0 2.133 0 2.133 0 0z" />
<glyph unicode="&#xe91d;" glyph-name="Delivery-Config" d="M561.067 388.267l29.867 64c2.133 6.4 10.667 10.667 12.8 6.4l29.867-36.267c2.133-4.267 0-10.667-6.4-14.933l-12.8-6.4v-91.733c0-4.267-4.267-8.533-8.533-10.667l-19.2-8.533c-4.267-2.133-8.533 0-8.533 4.267l-2.133 91.733-12.8-6.4c0-2.133-4.267 2.133-2.133 8.533v0zM680.533 443.733l32 68.267c4.267 6.4 10.667 10.667 14.933 6.4l32-36.267c4.267-4.267 0-12.8-6.4-14.933l-12.8-6.4v-96c0-4.267-4.267-8.533-8.533-10.667l-21.333-8.533c-4.267-2.133-8.533 0-8.533 4.267v96l-12.8-6.4c-8.533-8.533-12.8-4.267-8.533 4.267v0zM770.133 620.8l-89.6 40.533-283.733-134.4v-85.333l-49.067 21.333v85.333l283.733 134.4-96 42.667c-12.8 6.4-34.133 6.4-46.933 0l-234.667-104.533c-19.2-8.533-34.133-32-34.133-53.333v-245.333c0-21.333 14.933-44.8 34.133-53.333l234.667-100.267c12.8-4.267 32-4.267 44.8 0l234.667 100.267c19.2 8.533 34.133 32 34.133 53.333v245.333c2.133 21.333-12.8 44.8-32 53.333v0z" />
<glyph unicode="&#xe91e;" glyph-name="Delivery" d="M661.333 642.133c-57.6 0-102.4-46.933-102.4-106.667h204.8c2.133 59.733-44.8 106.667-102.4 106.667zM375.467 292.267c0-36.524-28.654-66.133-64-66.133s-64 29.609-64 66.133c0 36.524 28.654 66.133 64 66.133s64-29.609 64-66.133zM661.333 644.267c8.533 0 12.8 4.267 12.8 12.8s-4.267 12.8-12.8 12.8-12.8-4.267-12.8-12.8c0-8.533 6.4-12.8 12.8-12.8zM744.533 292.267c0-36.524-28.654-66.133-64-66.133s-64 29.609-64 66.133c0 36.524 28.654 66.133 64 66.133s64-29.609 64-66.133zM755.2 411.733l23.467 25.6 12.8 38.4c2.133 10.667-2.133 17.067-12.8 17.067h-221.867c-12.8 0-25.6-12.8-25.6-25.6v-32c0 0 25.6-23.467 27.733-81.067-8.533-12.8-10.667-27.733-12.8-44.8h-85.333c-4.267 46.933-34.133 85.333-74.667 106.667l25.6 170.667v46.933h-72.533c-8.533-14.933-8.533-32 0-46.933h23.467l-66.133-157.867c-32-8.533-61.867-27.733-74.667-49.067l12.8-14.933c8.533-4.267 17.067-4.267 23.467 2.133 17.067 17.067 40.533 27.733 66.133 27.733 57.6 2.133 100.267-46.933 100.267-106.667v-10.667h155.733v14.933c0 53.333 38.4 100.267 89.6 106.667 38.4 2.133 74.667-14.933 93.867-49.067 4.267-8.533 12.8-10.667 23.467-8.533l17.067 8.533c-10.667 25.6-29.867 46.933-49.067 61.867z" />
<glyph unicode="&#xe91f;" glyph-name="Digital-Board" d="M810.667 684.8h-576c-2.133 0-6.4-2.133-6.4-6.4v-377.6c0-2.133 2.133-6.4 6.4-6.4h275.2c-4.267-27.733-27.733-49.067-57.6-49.067h-53.333c-8.533 0-14.933-6.4-14.933-14.933s6.4-14.933 14.933-14.933h245.333c8.533 0 14.933 6.4 14.933 14.933s-6.4 14.933-14.933 14.933h-53.333c-29.867 0-53.333 21.333-57.6 49.067h275.2c2.133 0 6.4 2.133 6.4 6.4v377.6c2.133 4.267-2.133 6.4-4.267 6.4zM595.2 364.8l-4.267 72.533c10.667 2.133 21.333 10.667 27.733 19.2 6.4 10.667-6.4 113.067-6.4 113.067h-8.533v-93.867h-14.933v87.467h-14.933v-87.467h-12.8v96h-8.533c0 0-12.8-100.267-6.4-115.2 6.4-8.533 17.067-14.933 27.733-17.067l-6.4-85.333c-12.8-4.267-29.867-6.4-44.8-6.4-10.667 0-23.467 2.133-34.133 4.267l-6.4 96 12.8 2.133c17.067 6.4 29.867 29.867 29.867 61.867s-25.6 61.867-49.067 61.867c-25.6 0-49.067-29.867-49.067-61.867 0-29.867 10.667-53.333 29.867-61.867 2.133-2.133 10.667-4.267 10.667-4.267l-6.4-85.333c-49.067 23.467-81.067 72.533-81.067 128 2.133 76.8 66.133 140.8 145.067 140.8s142.933-64 142.933-142.933c-2.133-51.2-29.867-96-72.533-121.6z" />
<glyph unicode="&#xe920;" glyph-name="Discounts" d="M795.733 416l-8.533 10.667c-10.667 12.8-10.667 32 0 44.8l8.533 12.8c12.8 19.2 6.4 44.8-12.8 55.467l-14.933 8.533c-14.933 8.533-23.467 23.467-19.2 40.533l2.133 14.933c4.267 23.467-12.8 44.8-36.267 44.8h-14.933c-17.067 0-29.867 12.8-36.267 27.733l-4.267 14.933c-6.4 21.333-32 34.133-53.333 25.6l-14.933-6.4c-14.933-6.4-32-2.133-44.8 10.667l-10.667 10.667c-14.933 17.067-42.667 17.067-57.6 0l-10.667-10.667c-10.667-12.8-27.733-17.067-44.8-10.667l-14.933 6.4c-21.333 8.533-46.933-2.133-51.2-25.6l-4.267-14.933c-4.267-17.067-19.2-27.733-34.133-27.733h-14.933c-23.467-2.133-40.533-23.467-36.267-44.8l2.133-14.933c2.133-17.067-4.267-32-19.2-40.533l-12.8-6.4c-21.333-10.667-25.6-38.4-12.8-57.6l8.533-12.8c10.667-12.8 10.667-32 0-44.8l-8.533-12.8c-12.8-19.2-6.4-44.8 12.8-55.467l12.8-6.4c14.933-8.533 23.467-23.467 19.2-40.533l-2.133-14.933c-4.267-23.467 12.8-44.8 36.267-44.8h14.933c17.067 0 29.867-12.8 36.267-27.733l4.267-14.933c6.4-23.467 32-34.133 53.333-25.6l14.933 6.4c14.933 6.4 32 2.133 44.8-10.667l10.667-10.667c14.933-17.067 42.667-17.067 57.6 0l10.667 10.667c10.667 12.8 27.733 17.067 44.8 10.667l14.933-6.4c21.333-8.533 46.933 2.133 51.2 25.6l4.267 14.933c4.267 17.067 19.2 27.733 34.133 27.733h14.933c23.467 2.133 40.533 23.467 36.267 44.8l-2.133 14.933c-2.133 17.067 4.267 32 19.2 40.533l12.8 6.4c23.467 10.667 27.733 38.4 14.933 57.6zM409.6 497.067c0 19.2 17.067 36.267 36.267 36.267s36.267-17.067 36.267-36.267c0-19.2-17.067-36.267-36.267-36.267s-36.267 14.933-36.267 36.267zM448 324.267c-6.4-6.4-14.933-8.533-23.467-2.133-6.4 6.4-8.533 14.933-2.133 23.467l172.8 206.933c6.4 6.4 14.933 8.533 23.467 2.133 6.4-6.4 8.533-14.933 2.133-23.467l-172.8-206.933zM597.333 343.467c-19.2 0-36.267 17.067-36.267 36.267s17.067 36.267 36.267 36.267c19.2 0 36.267-17.067 36.267-36.267s-17.067-36.267-36.267-36.267z" />
<glyph unicode="&#xe921;" glyph-name="Down" d="M279.467 448l232.533-232.533 232.533 232.533-40.533 40.533-162.133-162.133v354.133h-59.733v-354.133l-162.133 162.133z" />
<glyph unicode="&#xe922;" glyph-name="Edit-1" d="M738.133 631.467c-4.267 8.533-10.667 19.2-21.333 27.733-8.533 8.533-17.067 12.8-25.6 17.067s-19.2 6.4-27.733 6.4c-14.933 0-27.733-4.267-38.4-10.667s-17.067-12.8-19.2-14.933c-2.133-2.133-19.2-17.067-49.067-49.067-29.867-29.867-61.867-64-98.133-98.133l-138.667-138.667c0 0-2.133-2.133-2.133-4.267s-2.133-2.133-2.133-4.267c-2.133-6.4-4.267-14.933-8.533-29.867-4.267-12.8-8.533-27.733-12.8-42.667l-10.667-38.4c-4.267-12.8-4.267-14.933-4.267-17.067v0c0-2.133 0-6.4 0-8.533s2.133-6.4 4.267-8.533c2.133-2.133 4.267-2.133 6.4-4.267 2.133 0 4.267-2.133 6.4-2.133 0 0 2.133 0 2.133 0s2.133 0 2.133 0 4.267 2.133 17.067 6.4c10.667 4.267 23.467 8.533 38.4 12.8s27.733 8.533 42.667 12.8c12.8 4.267 23.467 6.4 25.6 8.533 2.133 0 2.133 0 4.267 2.133 2.133 0 2.133 2.133 4.267 2.133 2.133 2.133 19.2 19.2 46.933 46.933s59.733 59.733 93.867 93.867c34.133 34.133 66.133 66.133 96 93.867 29.867 29.867 46.933 46.933 51.2 51.2 8.533 8.533 14.933 19.2 21.333 27.733 4.267 10.667 6.4 19.2 6.4 29.867-2.133 12.8-4.267 23.467-10.667 32zM712.533 601.6c0-4.267-2.133-10.667-4.267-17.067s-6.4-10.667-12.8-17.067v0c0 0 0 0 0 0-2.133 4.267-4.267 10.667-8.533 17.067s-10.667 14.933-17.067 21.333c-6.4 6.4-14.933 12.8-21.333 17.067s-10.667 6.4-17.067 8.533v0c0 0 2.133 2.133 10.667 8.533 6.4 4.267 14.933 6.4 23.467 6.4 4.267 0 10.667-2.133 14.933-4.267s10.667-6.4 14.933-10.667c6.4-6.4 10.667-10.667 12.8-17.067 2.133-2.133 4.267-6.4 4.267-12.8zM667.733 539.733c-14.933-12.8-32-32-53.333-53.333l-68.267-68.267c-23.467-23.467-44.8-44.8-66.133-66.133-19.2-19.2-36.267-36.267-49.067-49.067-2.133 4.267-4.267 10.667-8.533 14.933-4.267 6.4-8.533 12.8-14.933 19.2-8.533 8.533-14.933 12.8-23.467 19.2-6.4 4.267-12.8 6.4-17.067 8.533l49.067 49.067c21.333 21.333 44.8 44.8 68.267 68.267s46.933 46.933 68.267 68.267c21.333 21.333 38.4 38.4 53.333 53.333 4.267 0 8.533-2.133 14.933-6.4 8.533-4.267 14.933-10.667 25.6-19.2 8.533-8.533 14.933-17.067 17.067-25.6 2.133-6.4 4.267-10.667 4.267-12.8zM403.2 283.733c-10.667-4.267-23.467-8.533-40.533-12.8-17.067-6.4-32-10.667-44.8-14.933 4.267 12.8 8.533 27.733 14.933 44.8s10.667 32 12.8 42.667c4.267-2.133 8.533-4.267 14.933-6.4 6.4-4.267 14.933-10.667 23.467-17.067 6.4-6.4 10.667-12.8 14.933-19.2 2.133-8.533 4.267-12.8 4.267-17.067z" />
<glyph unicode="&#xe923;" glyph-name="Edit" d="M725.333 569.6l-44.8-44.8-91.733 91.733 44.8 44.8c4.267 4.267 10.667 6.4 17.067 6.4s12.8-2.133 17.067-6.4l57.6-57.6c4.267-4.267 6.4-10.667 6.4-17.067s-2.133-12.8-6.4-17.067zM292.267 320l268.8 268.8 91.733-91.733-268.8-268.8h-91.733v91.733z" />
<glyph unicode="&#xe924;" glyph-name="Employees" d="M381.867 514.133c14.933 0 29.867 4.267 40.533 12.8 4.267 23.467 17.067 44.8 36.267 59.733 0 2.133 0 2.133 0 4.267 0 42.667-34.133 76.8-76.8 76.8s-76.8-34.133-76.8-76.8 34.133-76.8 76.8-76.8zM516.267 435.2c42.667 0 76.8 34.133 76.8 76.8s-34.133 76.8-76.8 76.8c-42.667 0-76.8-34.133-76.8-76.8s34.133-76.8 76.8-76.8zM610.133 522.667c10.667-4.267 21.333-6.4 32-6.4 42.667 0 76.8 34.133 76.8 76.8s-34.133 76.8-76.8 76.8c-42.667 0-76.8-34.133-76.8-74.667 25.6-19.2 42.667-44.8 44.8-72.533zM674.133 509.867h-64c0-25.6-10.667-49.067-29.867-66.133 49.067-14.933 83.2-59.733 83.2-110.933v-23.467c64 2.133 100.267 21.333 102.4 21.333l4.267 2.133v78.933c2.133 53.333-40.533 98.133-96 98.133zM548.267 430.933h-64c-53.333 0-98.133-44.8-98.133-98.133v-81.067l6.4-2.133c51.2-17.067 96-21.333 132.267-21.333 72.533 0 113.067 21.333 117.333 21.333l4.267 2.133v78.933c0 55.467-44.8 100.267-98.133 100.267zM450.133 443.733c-17.067 17.067-27.733 40.533-29.867 66.133-2.133 0-4.267 0-6.4 0h-64c-53.333 0-98.133-44.8-98.133-98.133v-81.067l6.4-2.133c40.533-12.8 78.933-19.2 110.933-21.333v23.467c-2.133 53.333 34.133 98.133 81.067 113.067z" />
<glyph unicode="&#xe925;" glyph-name="eShop" d="M426.667 249.6c19.2 0 32-14.933 32-32s-14.933-32-32-32-32 14.933-32 32c0 14.933 14.933 32 32 32zM588.8 249.6c19.2 0 32-14.933 32-32s-14.933-32-32-32-32 14.933-32 32c0 14.933 14.933 32 32 32zM505.6 503.467c6.4-59.733 55.467-106.667 117.333-106.667 19.2 0 34.133 4.267 49.067 12.8l-10.667-51.2c-2.133-10.667-14.933-21.333-25.6-21.333h-249.6l6.4-40.533h236.8c8.533 0 17.067-6.4 17.067-17.067 0-8.533-6.4-17.067-17.067-17.067h-251.733c-8.533 0-17.067 6.4-17.067 14.933l-57.6 281.6-49.067 14.933c-8.533 2.133-14.933 10.667-12.8 21.333 2.133 8.533 12.8 14.933 21.333 10.667l59.733-17.067c4.267-2.133 8.533-4.267 10.667-8.533v-2.133l12.8-59.733c2.133 0 2.133 0 4.267 0l155.733-14.933zM659.2 426.667v0 0 0c-78.933 0-145.067 66.133-145.067 145.067v0 0 0c0 78.933 66.133 145.067 145.067 145.067v0 0 0c78.933 0 145.067-66.133 145.067-145.067v0 0c2.133-81.067-64-145.067-145.067-145.067zM697.6 514.133c-12.8-2.133-25.6-2.133-38.4-2.133-14.933 0-25.6 0-38.4 2.133 6.4-44.8 23.467-72.533 38.4-72.533v0c14.933 0 32 27.733 38.4 72.533zM699.733 531.2c2.133 12.8 2.133 25.6 2.133 40.533s0 27.733-2.133 40.533c-12.8 2.133-25.6 2.133-40.533 2.133s-27.733 0-40.533-2.133c0-12.8 0-27.733 0-40.533 0-14.933 0-27.733 2.133-40.533 10.667-2.133 25.6-2.133 40.533-2.133s27.733 0 38.4 2.133zM529.067 571.733c0-14.933 27.733-29.867 72.533-38.4-2.133 12.8-2.133 25.6-2.133 38.4 0 14.933 0 25.6 2.133 38.4-42.667-6.4-72.533-23.467-72.533-38.4v0zM620.8 627.2c12.8 2.133 25.6 2.133 38.4 2.133s25.6 0 38.4-2.133c-6.4 44.8-23.467 72.533-38.4 72.533v0c-14.933 2.133-29.867-25.6-38.4-72.533zM718.933 571.733c0-10.667 0-25.6-2.133-38.4 44.8 6.4 72.533 23.467 72.533 38.4v0 0c0 14.933-27.733 29.867-72.533 38.4 2.133-12.8 2.133-25.6 2.133-38.4zM691.2 697.6c10.667-17.067 19.2-42.667 23.467-72.533 27.733-4.267 55.467-12.8 72.533-23.467-12.8 46.933-49.067 85.333-96 96zM533.333 601.6c17.067 10.667 42.667 19.2 72.533 23.467 4.267 27.733 10.667 55.467 23.467 72.533-46.933-10.667-85.333-49.067-96-96zM629.333 443.733c-12.8 17.067-19.2 42.667-23.467 72.533-27.733 4.267-55.467 10.667-72.533 23.467 10.667-46.933 49.067-83.2 96-96zM787.2 544c-17.067-12.8-42.667-19.2-72.533-23.467-4.267-27.733-10.667-55.467-23.467-72.533 46.933 8.533 83.2 44.8 96 96z" />
<glyph unicode="&#xe926;" glyph-name="Eye" d="M401.067 326.4l25.6 46.933c-38.4 27.733-59.733 72.533-59.733 117.333 0 25.6 6.4 51.2 19.2 72.533-51.2-25.6-93.867-68.267-123.733-115.2 32-53.333 81.067-96 138.667-121.6zM526.933 573.867c0 8.533-6.4 14.933-14.933 14.933-55.467 0-100.267-44.8-100.267-100.267 0-8.533 6.4-14.933 14.933-14.933s14.933 6.4 14.933 14.933c0 38.4 29.867 68.267 68.267 68.267 10.667 0 17.067 8.533 17.067 17.067zM646.4 635.733c0 0 0-2.133 0-2.133-68.267-123.733-136.533-247.467-206.933-369.067l-14.933-29.867c-2.133-4.267-6.4-4.267-8.533-4.267-6.4 0-36.267 19.2-44.8 23.467-4.267 2.133-4.267 4.267-4.267 8.533s10.667 23.467 14.933 27.733c-64 27.733-117.333 76.8-153.6 136.533-4.267 6.4-6.4 14.933-6.4 23.467s2.133 14.933 6.4 23.467c64 100.267 166.4 166.4 285.867 166.4 19.2 0 40.533-2.133 59.733-6.4l17.067 32c2.133 4.267 4.267 4.267 8.533 4.267 6.4 0 36.267-19.2 42.667-23.467 2.133-4.267 4.267-6.4 4.267-10.667zM659.2 490.667c0-59.733-38.4-115.2-93.867-136.533l91.733 164.267c0-10.667 2.133-19.2 2.133-27.733zM804.267 448c0-8.533-2.133-14.933-6.4-23.467-10.667-17.067-23.467-32-36.267-46.933-64-72.533-151.467-117.333-249.6-117.333l23.467 42.667c96 8.533 174.933 66.133 226.133 145.067-23.467 38.4-55.467 70.4-91.733 96l21.333 36.267c40.533-27.733 81.067-68.267 106.667-110.933 4.267-6.4 6.4-12.8 6.4-21.333z" />
<glyph unicode="&#xe927;" glyph-name="Feedback-KIOSK" d="M514.133 465.067c-12.8 0-23.467-10.667-23.467-23.467s10.667-23.467 23.467-23.467c12.8 0 23.467 10.667 23.467 23.467s-10.667 23.467-23.467 23.467zM514.133 398.933c-12.8 0-23.467-10.667-23.467-23.467s10.667-23.467 23.467-23.467c12.8 0 23.467 10.667 23.467 23.467s-10.667 23.467-23.467 23.467zM823.467 448c0 113.067-102.4 206.933-228.267 206.933-6.4 0-12.8 0-19.2 0-21.333-2.133-42.667-6.4-61.867-12.8-25.6 8.533-53.333 12.8-83.2 12.8-125.867 0-228.267-91.733-228.267-206.933 0-38.4 12.8-76.8 34.133-106.667l-19.2-74.667 74.667 19.2c38.4-27.733 87.467-44.8 140.8-44.8 6.4 0 12.8 0 19.2 0 21.333 2.133 42.667 6.4 61.867 12.8 19.2-6.4 40.533-10.667 61.867-12.8 6.4 0 12.8 0 19.2 0 53.333 0 102.4 17.067 140.8 44.8l74.667-19.2-21.333 74.667c21.333 29.867 34.133 68.267 34.133 106.667v0zM633.6 290.133c-12.8-2.133-25.6-4.267-38.4-4.267-6.4 0-14.933 0-21.333 0-21.333 2.133-42.667 8.533-61.867 14.933-14.933 6.4-29.867 14.933-42.667 25.6-36.267 29.867-59.733 72.533-59.733 119.467s23.467 89.6 59.733 119.467c-12.8 2.133-25.6 4.267-40.533 4.267-6.4 0-12.8 0-19.2-2.133-27.733-34.133-44.8-76.8-44.8-123.733s17.067-87.467 44.8-123.733c10.667-14.933 25.6-27.733 40.533-38.4-6.4 0-14.933 0-21.333 0-12.8 0-25.6 2.133-38.4 4.267-83.2 14.933-145.067 81.067-145.067 157.867 0 89.6 83.2 162.133 183.467 162.133 6.4 0 14.933 0 21.333-2.133 21.333-2.133 42.667-8.533 61.867-14.933 59.733-25.6 102.4-81.067 102.4-145.067 0-46.933-23.467-89.6-59.733-119.467 12.8-2.133 25.6-4.267 40.533-4.267 6.4 0 12.8 0 19.2 2.133 27.733 34.133 44.8 76.8 44.8 123.733 0 64-34.133 123.733-85.333 160 6.4 0 14.933 2.133 21.333 2.133 12.8 0 25.6-2.133 38.4-4.267 83.2-14.933 145.067-81.067 145.067-157.867 0-74.667-61.867-140.8-145.067-155.733zM514.133 533.333c-12.8 0-23.467-10.667-23.467-23.467s10.667-23.467 23.467-23.467c12.8 0 23.467 10.667 23.467 23.467s-10.667 23.467-23.467 23.467z" />
<glyph unicode="&#xe928;" glyph-name="Fill-Arrow-Down" d="M292.267 556.8h439.467l-219.733-217.6z" />
<glyph unicode="&#xe929;" glyph-name="Fill-Arrow-Left" d="M620.8 667.733v-439.467l-217.6 219.733z" />
<glyph unicode="&#xe92a;" glyph-name="Fill-Arrow-Right" d="M403.2 228.267v439.467l217.6-219.733z" />
<glyph unicode="&#xe92b;" glyph-name="Fill-Arrow-UP" d="M731.733 339.2h-439.467l219.733 217.6z" />
<glyph unicode="&#xe92c;" glyph-name="Filter" d="M714.667 642.133c-4.267 8.533-8.533 14.933-17.067 21.333-8.533 4.267-17.067 8.533-25.6 8.533h-320c-8.533 0-17.067-2.133-25.6-8.533-8.533-4.267-12.8-12.8-17.067-21.333s-4.267-17.067-2.133-27.733c2.133-8.533 6.4-17.067 12.8-23.467l142.933-138.667v-136.533c0-6.4 2.133-10.667 6.4-14.933l66.133-68.267c4.267-4.267 8.533-6.4 14.933-6.4 2.133 0 4.267 0 8.533 2.133 8.533 4.267 12.8 10.667 12.8 21.333v206.933l130.133 136.533c6.4 6.4 10.667 14.933 12.8 23.467v0c4.267 6.4 2.133 17.067 0 25.6zM501.333 477.867l-149.333 145.067c0 0-2.133 2.133 0 2.133 0 2.133 2.133 2.133 2.133 2.133h317.867c2.133 0 2.133 0 2.133-2.133s0-2.133 0-4.267l-136.533-142.933c-4.267-4.267-6.4-8.533-6.4-14.933v-164.267l-23.467 25.6v136.533c0 6.4-2.133 12.8-6.4 17.067z" />
<glyph unicode="&#xe92d;" glyph-name="Foodhub" d="M755.2 635.733c-8.533 0-14.933 0-21.333 0s-12.8 0-21.333 0c-6.4 0-14.933-2.133-25.6-2.133v-136.533h-89.6v136.533c-8.533 2.133-17.067 2.133-25.6 2.133s-14.933 0-21.333 0c-6.4 0-12.8 0-19.2 0-8.533 0-17.067-2.133-25.6-2.133v-369.067c17.067-2.133 34.133-4.267 46.933-4.267s27.733 2.133 44.8 4.267v151.467h91.733v-151.467c17.067-2.133 34.133-4.267 46.933-4.267s27.733 2.133 44.8 4.267v369.067c-8.533 0-17.067 2.133-25.6 2.133zM460.8 633.6h-217.6v-369.067c17.067-2.133 34.133-4.267 46.933-4.267s27.733 2.133 44.8 4.267v145.067h100.267c2.133 14.933 4.267 29.867 4.267 40.533s-2.133 25.6-4.267 40.533h-100.267v64h125.867c2.133 14.933 4.267 29.867 4.267 40.533 0 6.4 0 12.8 0 19.2-2.133 4.267-2.133 10.667-4.267 19.2z" />
<glyph unicode="&#xe92e;" glyph-name="GDPR" d="M469.333 710.4l-17.067 17.067c-2.133 2.133-4.267 6.4-2.133 10.667s4.267 6.4 8.533 6.4l23.467 4.267 10.667 21.333c4.267 6.4 14.933 6.4 19.2 0l10.667-21.333 23.467-4.267c4.267 0 6.4-4.267 8.533-6.4 2.133-4.267 0-8.533-2.133-10.667l-17.067-17.067 4.267-23.467c0-4.267 0-8.533-4.267-10.667-2.133-2.133-4.267-2.133-6.4-2.133s-4.267 0-4.267 2.133l-21.333 10.667-21.333-10.667c-4.267-2.133-8.533-2.133-10.667 0-4.267 2.133-4.267 6.4-4.267 10.667l2.133 23.467zM266.667 625.067l-17.067 17.067c-2.133 2.133-4.267 6.4-2.133 10.667s4.267 6.4 8.533 6.4l23.467 4.267 10.667 21.333c4.267 6.4 14.933 6.4 19.2 0l10.667-21.333 23.467-4.267c4.267 0 6.4-4.267 8.533-6.4 2.133-4.267 0-8.533-2.133-10.667l-17.067-17.067 4.267-23.467c0-4.267 0-8.533-4.267-10.667-2.133-2.133-4.267-2.133-6.4-2.133s-4.267 0-4.267 2.133l-21.333 10.667-21.333-10.667c-4.267-2.133-8.533-2.133-10.667 0-4.267 2.133-4.267 6.4-4.267 10.667l2.133 23.467zM674.133 625.067l-17.067 17.067c-2.133 2.133-4.267 6.4-2.133 10.667s4.267 6.4 8.533 6.4l23.467 4.267 10.667 21.333c4.267 6.4 14.933 6.4 19.2 0l10.667-21.333 23.467-4.267c4.267 0 6.4-4.267 8.533-6.4 2.133-4.267 0-8.533-2.133-10.667l-17.067-17.067 4.267-23.467c0-4.267 0-8.533-4.267-10.667-2.133-2.133-4.267-2.133-6.4-2.133s-4.267 0-4.267 2.133l-21.333 10.667-21.333-10.667c-4.267-2.133-8.533-2.133-10.667 0-4.267 2.133-4.267 6.4-4.267 10.667l2.133 23.467zM345.6 253.867c4.267 0 6.4-4.267 8.533-6.4 2.133-4.267 0-8.533-2.133-10.667l-17.067-17.067 4.267-23.467c0-4.267 0-8.533-4.267-10.667-2.133-2.133-4.267-2.133-6.4-2.133s-4.267 0-4.267 2.133l-21.333 10.667-21.333-10.667c-4.267-2.133-8.533-2.133-10.667 0-4.267 2.133-4.267 6.4-4.267 10.667l4.267 23.467-17.067 17.067c-2.133 2.133-4.267 6.4-2.133 10.667s4.267 6.4 8.533 6.4l23.467 4.267 10.667 21.333c4.267 6.4 14.933 6.4 19.2 0l10.667-21.333 21.333-4.267zM750.933 253.867c4.267 0 6.4-4.267 8.533-6.4 2.133-4.267 0-8.533-2.133-10.667l-17.067-17.067 4.267-23.467c0-4.267 0-8.533-4.267-10.667-2.133-2.133-4.267-2.133-6.4-2.133s-4.267 0-4.267 2.133l-21.333 10.667-21.333-10.667c-4.267-2.133-8.533-2.133-10.667 0-4.267 2.133-4.267 6.4-4.267 10.667l4.267 23.467-17.067 17.067c-2.133 2.133-4.267 6.4-2.133 10.667s4.267 6.4 8.533 6.4l23.467 4.267 10.667 21.333c4.267 6.4 14.933 6.4 19.2 0l10.667-21.333 21.333-4.267zM844.8 450.133c2.133-4.267 0-8.533-2.133-10.667l-17.067-17.067 4.267-23.467c0-4.267 0-8.533-4.267-10.667-2.133-2.133-4.267-2.133-6.4-2.133s-4.267 0-4.267 2.133l-21.333 10.667-21.333-10.667c-4.267-2.133-8.533-2.133-10.667 0-4.267 2.133-4.267 6.4-4.267 10.667l4.267 23.467-17.067 17.067c-2.133 2.133-4.267 6.4-2.133 10.667s4.267 6.4 8.533 6.4l23.467 4.267 10.667 21.333c4.267 6.4 14.933 6.4 19.2 0l10.667-21.333 23.467-4.267c2.133 0 6.4-2.133 6.4-6.4zM251.733 398.933c0-4.267 0-8.533-4.267-10.667-2.133-2.133-4.267-2.133-6.4-2.133s-4.267 0-4.267 2.133l-21.333 10.667-21.333-10.667c-4.267-2.133-8.533-2.133-10.667 0-4.267 2.133-4.267 6.4-4.267 10.667l4.267 23.467-17.067 17.067c-2.133 2.133-4.267 6.4-2.133 10.667s4.267 6.4 8.533 6.4l23.467 4.267 10.667 21.333c4.267 6.4 14.933 6.4 19.2 0l10.667-21.333 23.467-4.267c4.267 0 6.4-4.267 8.533-6.4 2.133-4.267 0-8.533-2.133-10.667l-17.067-17.067 2.133-23.467zM548.267 168.533c4.267 0 6.4-4.267 8.533-6.4 2.133-4.267 0-8.533-2.133-10.667l-17.067-17.067 4.267-23.467c0-4.267 0-8.533-4.267-10.667-2.133-2.133-4.267-2.133-6.4-2.133s-4.267 0-4.267 2.133l-21.333 10.667-21.333-10.667c-4.267-2.133-8.533-2.133-10.667 0-4.267 2.133-4.267 6.4-4.267 10.667l4.267 23.467-17.067 17.067c-2.133 2.133-4.267 6.4-2.133 10.667s4.267 6.4 8.533 6.4l23.467 4.267 10.667 21.333c4.267 6.4 14.933 6.4 19.2 0l10.667-21.333 21.333-4.267zM503.467 339.2c53.333 0 96 42.667 96 96s-42.667 96-96 96-96-42.667-96-96c0-53.333 42.667-96 96-96zM503.467 618.667l153.6-85.333-8.533-104.533c-4.267-51.2-32-96-74.667-125.867l-70.4-46.933-70.4 46.933c-42.667 27.733-70.4 74.667-74.667 125.867l-8.533 104.533 153.6 85.333zM492.8 420.267l46.933 55.467 17.067-12.8-53.333-64c-2.133-2.133-4.267-4.267-8.533-4.267v0c-2.133 0-6.4 2.133-8.533 2.133l-32 32 14.933 14.933 23.467-23.467z" />
<glyph unicode="&#xe92f;" glyph-name="GPS" d="M742.4 473.6c-4.267 36.267-14.933 68.267-34.133 98.133s-42.667 53.333-72.533 72.533-61.867 29.867-98.133 34.133v53.333h-51.2v-53.333c-36.267-4.267-68.267-14.933-98.133-34.133s-53.333-42.667-72.533-72.533c-19.2-29.867-29.867-61.867-34.133-98.133h-53.333v-51.2h53.333c4.267-36.267 14.933-68.267 34.133-98.133s42.667-53.333 72.533-72.533 61.867-29.867 98.133-34.133v-53.333h51.2v53.333c36.267 4.267 68.267 14.933 98.133 34.133s53.333 42.667 72.533 72.533 29.867 61.867 34.133 98.133h53.333v51.2h-53.333zM667.733 356.267c-17.067-27.733-38.4-49.067-64-64-27.733-17.067-57.6-23.467-91.733-23.467s-64 8.533-91.733 23.467c-27.733 17.067-49.067 38.4-64 64-17.067 27.733-23.467 57.6-23.467 91.733s8.533 64 23.467 91.733c17.067 27.733 38.4 49.067 64 64 27.733 17.067 57.6 23.467 91.733 23.467s64-8.533 91.733-23.467c27.733-17.067 49.067-38.4 64-64 17.067-27.733 23.467-57.6 23.467-91.733s-6.4-64-23.467-91.733zM563.2 537.6c-14.933 8.533-32 14.933-51.2 14.933s-36.267-4.267-51.2-14.933c-14.933-8.533-27.733-21.333-38.4-38.4-8.533-14.933-14.933-32-14.933-51.2s4.267-36.267 14.933-51.2c8.533-14.933 21.333-27.733 38.4-38.4 14.933-8.533 32-14.933 51.2-14.933s36.267 4.267 51.2 14.933c14.933 8.533 27.733 21.333 38.4 38.4 8.533 14.933 14.933 32 14.933 51.2s-4.267 36.267-14.933 51.2c-10.667 14.933-23.467 27.733-38.4 38.4z" />
<glyph unicode="&#xe930;" glyph-name="hamburger" d="M288 349.867h448v-51.2h-448v51.2zM288 597.333h448v-51.2h-448v51.2zM288 471.467h448v-49.067h-448v49.067z" />
<glyph unicode="&#xe931;" glyph-name="Help" d="M441.6 563.2c-2.133-2.133-4.267-4.267-4.267-4.267 2.133 2.133 4.267 4.267 4.267 4.267s0 0 0 0c14.933 17.067 36.267 25.6 64 25.6 25.6 0 44.8-6.4 59.733-21.333s23.467-32 23.467-53.333c0-12.8-2.133-23.467-8.533-32s-17.067-21.333-34.133-36.267c-12.8-12.8-19.2-21.333-23.467-29.867s-6.4-19.2-6.4-36.267h-34.133c0 17.067 2.133 32 6.4 42.667s12.8 23.467 27.733 38.4l14.933 14.933c4.267 4.267 8.533 8.533 10.667 12.8 4.267 8.533 8.533 17.067 8.533 25.6 0 12.8-4.267 23.467-10.667 32s-19.2 12.8-36.267 12.8c-21.333 0-36.267-8.533-42.667-23.467-4.267-8.533-6.4-21.333-8.533-38.4h-34.133c0 27.733 8.533 49.067 23.467 66.133zM795.733 448c0-157.867-128-283.733-283.733-283.733-157.867 0-283.733 128-283.733 283.733 0 157.867 128 283.733 283.733 283.733 157.867 0 283.733-125.867 283.733-283.733zM253.867 448c0-142.933 115.2-258.133 258.133-258.133s258.133 115.2 258.133 258.133-115.2 258.133-258.133 258.133-258.133-115.2-258.133-258.133zM482.133 345.6h38.4v-38.4h-38.4v38.4zM512 157.867c-160 0-290.133 130.133-290.133 290.133s130.133 290.133 290.133 290.133 290.133-130.133 290.133-290.133c0-160-130.133-290.133-290.133-290.133zM512 725.333c-153.6 0-277.333-123.733-277.333-277.333s123.733-277.333 277.333-277.333 277.333 123.733 277.333 277.333c0 153.6-123.733 277.333-277.333 277.333zM512 183.467c-145.067 0-264.533 119.467-264.533 264.533s119.467 264.533 264.533 264.533c145.067 0 264.533-119.467 264.533-264.533s-119.467-264.533-264.533-264.533zM512 699.733c-138.667 0-251.733-113.067-251.733-251.733s113.067-251.733 251.733-251.733 251.733 113.067 251.733 251.733c0 138.667-113.067 251.733-251.733 251.733zM526.933 300.8h-51.2v51.2h51.2v-51.2zM488.533 313.6h25.6v25.6h-25.6v-25.6zM522.667 371.2h-46.933v6.4c0 19.2 2.133 34.133 6.4 46.933s14.933 25.6 29.867 40.533l14.933 14.933c4.267 4.267 6.4 8.533 10.667 12.8 4.267 6.4 6.4 14.933 6.4 21.333 0 10.667-2.133 19.2-8.533 27.733-6.4 6.4-17.067 10.667-32 10.667-19.2 0-32-6.4-38.4-19.2-4.267-8.533-6.4-19.2-6.4-34.133v-6.4h-46.933v6.4c0 25.6 6.4 46.933 21.333 64v0l4.267 4.267c17.067 19.2 40.533 27.733 68.267 27.733 25.6 0 49.067-8.533 64-23.467 17.067-14.933 23.467-36.267 23.467-59.733 0-14.933-2.133-27.733-8.533-36.267s-17.067-21.333-34.133-38.4c-10.667-10.667-19.2-21.333-21.333-27.733-4.267-6.4-4.267-19.2-4.267-34.133v-4.267zM490.667 384h21.333c0 12.8 2.133 23.467 6.4 32s12.8 19.2 25.6 32c17.067 14.933 27.733 27.733 32 36.267 4.267 6.4 6.4 17.067 6.4 29.867 0 21.333-6.4 36.267-21.333 49.067-12.8 12.8-32 19.2-55.467 19.2-25.6 0-44.8-6.4-57.6-23.467v0 0c-12.8-14.933-19.2-32-21.333-55.467h21.333c0 14.933 4.267 25.6 8.533 34.133 8.533 17.067 25.6 27.733 49.067 27.733 19.2 0 32-6.4 42.667-17.067 8.533-10.667 12.8-21.333 12.8-36.267 0-10.667-2.133-19.2-8.533-29.867-2.133-4.267-6.4-10.667-12.8-14.933l-14.933-14.933c-12.8-12.8-23.467-25.6-27.733-36.267-4.267-6.4-6.4-17.067-6.4-32zM445.867 558.933v0 0zM443.733 561.067v0z" />
<glyph unicode="&#xe932;" glyph-name="Home" d="M612.267 603.733h-25.6v-32l25.6-21.333v53.333zM381.867 512c0 0 8.533-14.933 25.6 0l108.8 91.733 100.267-91.733c21.333-14.933 27.733 0 27.733 0l-130.133 119.467-132.267-119.467zM416 503.467v-102.4c0 0 0-6.4 6.4-6.4 8.533 0 66.133 0 66.133 0v55.467c0 0-2.133 8.533 8.533 8.533h27.733c8.533 0 8.533-8.533 8.533-8.533v-55.467h64c8.533 0 8.533 8.533 8.533 8.533h2.133v100.267l-93.867 81.067-98.133-81.067zM512 793.6c-155.733 0-281.6-125.867-281.6-281.6 0-83.2 36.267-157.867 96-211.2l185.6-200.533 185.6 200.533c57.6 51.2 96 125.867 96 211.2 0 155.733-125.867 281.6-281.6 281.6zM512 294.4c-121.6 0-217.6 98.133-217.6 217.6 0 121.6 98.133 217.6 217.6 217.6s217.6-98.133 217.6-217.6-96-217.6-217.6-217.6z" />
<glyph unicode="&#xe933;" glyph-name="info" d="M512 535.467c10.667 0 19.2 4.267 27.733 10.667 6.4 6.4 10.667 17.067 10.667 27.733s-4.267 19.2-10.667 27.733c-6.4 6.4-17.067 10.667-27.733 10.667s-19.2-4.267-27.733-10.667c-6.4-6.4-10.667-17.067-10.667-27.733s4.267-19.2 10.667-27.733c8.533-8.533 17.067-10.667 27.733-10.667zM548.267 326.4h-14.933v157.867c0 6.4-2.133 10.667-6.4 14.933s-8.533 6.4-14.933 6.4h-36.267c-6.4 0-10.667-2.133-14.933-6.4s-6.4-8.533-6.4-14.933 2.133-10.667 6.4-14.933c4.267-4.267 8.533-6.4 14.933-6.4h14.933v-138.667h-14.933c-6.4 0-10.667-2.133-14.933-6.4s-6.4-8.533-6.4-14.933c0-6.4 2.133-10.667 6.4-14.933s8.533-6.4 14.933-6.4h70.4c6.4 0 10.667 2.133 14.933 6.4s6.4 8.533 6.4 14.933c0 6.4-2.133 10.667-6.4 14.933-4.267 6.4-8.533 8.533-12.8 8.533zM776.533 558.933c-14.933 34.133-36.267 66.133-61.867 91.733s-55.467 46.933-91.733 61.867c-34.133 14.933-72.533 21.333-110.933 21.333s-76.8-8.533-110.933-21.333c-34.133-14.933-66.133-36.267-91.733-61.867s-46.933-55.467-61.867-91.733c-14.933-34.133-21.333-72.533-21.333-110.933s8.533-76.8 21.333-110.933c14.933-34.133 36.267-66.133 61.867-91.733s55.467-46.933 91.733-61.867 72.533-21.333 110.933-21.333c38.4 0 76.8 8.533 110.933 21.333 34.133 14.933 66.133 36.267 91.733 61.867s46.933 55.467 61.867 91.733c14.933 34.133 21.333 72.533 21.333 110.933s-6.4 76.8-21.333 110.933zM512 200.533c-34.133 0-66.133 6.4-96 19.2s-55.467 29.867-78.933 53.333c-21.333 21.333-40.533 49.067-53.333 78.933s-19.2 61.867-19.2 96 6.4 66.133 19.2 96c12.8 29.867 29.867 55.467 53.333 78.933 21.333 21.333 49.067 40.533 78.933 53.333s61.867 19.2 96 19.2 66.133-6.4 96-19.2c29.867-12.8 55.467-29.867 78.933-53.333s40.533-49.067 53.333-78.933c12.8-29.867 19.2-61.867 19.2-96s-6.4-66.133-19.2-96c-12.8-29.867-29.867-55.467-53.333-78.933-21.333-21.333-49.067-40.533-78.933-53.333s-61.867-19.2-96-19.2z" />
<glyph unicode="&#xe934;" glyph-name="Logout" d="M761.6 465.067l-96 64c-4.267 4.267-12.8 4.267-21.333 2.133-6.4-4.267-12.8-10.667-12.8-19.2v-8.533h-12.8v196.267c0 14.933-12.8 27.733-27.733 27.733h-311.467c0 0-2.133 0-2.133 0-4.267 0-10.667 0-14.933-2.133-6.4-4.267-10.667-10.667-10.667-19.2v-450.133c0-10.667 6.4-19.2 14.933-21.333l189.867-64c2.133 0 4.267-2.133 8.533-2.133s8.533 2.133 12.8 4.267c6.4 4.267 8.533 10.667 8.533 17.067v36.267h104.533c14.933 0 27.733 12.8 27.733 27.733v136.533h14.933v-6.4c0-8.533 4.267-14.933 12.8-19.2 6.4-4.267 17.067-4.267 23.467 2.133l96 64c6.4 4.267 10.667 10.667 10.667 19.2-4.267 4.267-8.533 10.667-14.933 14.933zM473.6 627.2l-149.333 74.667h266.667c2.133 0 4.267-2.133 4.267-4.267v-196.267h-68.267c-12.8 0-21.333-10.667-21.333-21.333v-64c0-12.8 10.667-21.333 21.333-21.333h68.267v-138.667c0-2.133-2.133-4.267-4.267-4.267h-104.533v356.267c0 8.533-4.267 14.933-12.8 19.2zM409.6 477.867v-64c0-4.267-4.267-8.533-8.533-8.533s-8.533 4.267-8.533 8.533v64c0 6.4 4.267 8.533 8.533 8.533 4.267 2.133 8.533-2.133 8.533-8.533z" />
<glyph unicode="&#xe935;" glyph-name="Loyality-Points" d="M516.267 800c-40.533 0-72.533-32-72.533-72.533s32-72.533 72.533-72.533 72.533 32 72.533 72.533c0 40.533-32 72.533-72.533 72.533zM537.6 691.2h-44.8v6.4h2.133c8.533 4.267 10.667 8.533 10.667 17.067 0 2.133 0 4.267 0 8.533h-10.667v6.4h10.667c0 4.267-2.133 8.533-2.133 10.667 0 10.667 8.533 21.333 19.2 21.333 6.4 0 10.667-2.133 10.667-2.133l-2.133-8.533c-2.133 2.133-6.4 2.133-10.667 2.133-8.533 0-10.667-6.4-10.667-12.8 0-4.267 0-8.533 2.133-10.667h14.933v-6.4h-12.8c0-4.267 0-8.533 0-10.667-2.133-4.267-4.267-8.533-8.533-10.667h29.867v-10.667zM704 537.6c34.133 8.533 59.733 36.267 59.733 70.4 0 19.2-8.533 38.4-21.333 51.2-25.6 25.6-64 27.733-91.733 10.667-27.733-19.2-40.533-55.467-27.733-87.467 12.8-34.133 46.933-53.333 81.067-44.8zM657.067 610.133c8.533-2.133 14.933-2.133 21.333 4.267 2.133 2.133 4.267 4.267 4.267 6.4l-8.533 8.533 4.267 4.267 8.533-8.533c2.133 2.133 4.267 6.4 8.533 10.667 8.533 10.667 21.333 8.533 27.733 0 4.267-4.267 6.4-8.533 6.4-10.667l-8.533-6.4c0 2.133-2.133 6.4-6.4 8.533-6.4 6.4-10.667 4.267-17.067-2.133-4.267-4.267-6.4-6.4-8.533-10.667l10.667-10.667-4.267-4.267-10.667 8.533c-2.133-4.267-6.4-6.4-8.533-8.533-4.267-2.133-8.533-4.267-12.8-2.133l21.333-21.333-2.133-2.133-29.867 32 4.267 4.267zM347.733 537.6c34.133 8.533 59.733 36.267 59.733 70.4 0 19.2-8.533 38.4-21.333 51.2-25.6 25.6-64 27.733-91.733 10.667-29.867-19.2-40.533-55.467-27.733-87.467 12.8-34.133 46.933-53.333 81.067-44.8zM309.333 637.867c4.267 4.267 8.533 6.4 8.533 6.4l4.267-6.4c-2.133 0-6.4-2.133-8.533-6.4-6.4-6.4-4.267-10.667 2.133-17.067 4.267-4.267 6.4-6.4 10.667-8.533l10.667 10.667 4.267-4.267-12.8-10.667c4.267-2.133 6.4-6.4 8.533-8.533 2.133-4.267 4.267-8.533 2.133-12.8l21.333 21.333 6.4-6.4-29.867-29.867-4.267 4.267c2.133 8.533 2.133 14.933-4.267 21.333-4.267 6.4-6.4 6.4-8.533 6.4l-8.533-8.533-4.267 4.267 8.533 8.533c-2.133 2.133-6.4 4.267-10.667 8.533-6.4 8.533-6.4 21.333 4.267 27.733zM672 330.667l-66.133 110.933v-345.6h125.867c17.067 0 32 14.933 32 32v187.733h-61.867c-12.8 0-23.467 4.267-29.867 14.933zM827.733 392.533l-66.133 108.8h-155.733l85.333-140.8c6.4-8.533 14.933-14.933 27.733-14.933h83.2c10.667 0 21.333 6.4 27.733 14.933 2.133 10.667 2.133 23.467-2.133 32zM480 315.733h-217.6v-187.733c0-17.067 14.933-32 32-32h281.6v345.6l-66.133-110.933c-8.533-10.667-17.067-14.933-29.867-14.933zM196.267 392.533c-4.267-8.533-4.267-21.333 0-29.867 6.4-10.667 14.933-14.933 27.733-14.933h238.933c10.667 0 21.333 6.4 27.733 14.933l85.333 140.8h-313.6l-66.133-110.933z" />
<glyph unicode="&#xe936;" glyph-name="Mail" d="M234.667 633.6v-371.2h554.667v371.2h-554.667zM322.133 358.4l10.667-10.667 110.933 100.267 68.267-51.2 68.267 51.2 110.933-100.267 10.667 10.667-96 108.8 149.333 115.2v-285.867h-486.4v283.733l149.333-115.2-96-106.667zM512 437.333l-213.333 162.133h426.667l-213.333-162.133z" />
<glyph unicode="&#xe937;" glyph-name="Member" d="M625.067 307.2l-91.733 51.2c14.933 12.8 23.467 29.867 29.867 49.067 6.4 21.333 8.533 38.4 8.533 53.333v57.6c0 10.667-2.133 21.333-8.533 32s-14.933 19.2-23.467 27.733c-10.667 8.533-21.333 14.933-34.133 19.2-25.6 10.667-51.2 10.667-78.933 0-12.8-4.267-23.467-10.667-34.133-19.2s-19.2-17.067-23.467-27.733c-6.4-10.667-8.533-21.333-8.533-32v-57.6c0-12.8 4.267-29.867 8.533-51.2 6.4-19.2 17.067-36.267 29.867-49.067l-83.2-44.8-10.667-6.4c-8.533-4.267-12.8-12.8-12.8-19.2v-34.133c0-8.533 2.133-14.933 8.533-19.2 4.267-4.267 10.667-8.533 19.2-8.533h296.533c6.4 0 12.8 2.133 19.2 8.533 4.267 4.267 8.533 10.667 8.533 19.2v34.133c-4.267 4.267-8.533 10.667-19.2 17.067zM324.267 277.333v0c2.133 2.133 4.267 2.133 4.267 2.133l91.733 49.067c4.267 2.133 8.533 6.4 10.667 10.667s4.267 8.533 4.267 14.933c0 4.267 0 10.667-2.133 14.933s-4.267 8.533-8.533 12.8c-10.667 8.533-19.2 21.333-23.467 36.267-4.267 17.067-8.533 29.867-8.533 40.533v57.6c0 8.533 6.4 19.2 21.333 32s32 19.2 49.067 19.2c19.2 0 36.267-6.4 49.067-19.2 14.933-12.8 21.333-23.467 21.333-32v-57.6c0-10.667-2.133-23.467-6.4-40.533s-10.667-27.733-23.467-36.267c-4.267-4.267-6.4-6.4-8.533-12.8-2.133-4.267-2.133-10.667-2.133-14.933s2.133-10.667 4.267-14.933c2.133-4.267 6.4-8.533 10.667-10.667l85.333-46.933c0 0 0 0 2.133 0 0 0 2.133 0 2.133 0l2.133-2.133c0 0 0 0 0 0v-19.2h-275.2v17.067zM721.067 375.467l-93.867 51.2c14.933 12.8 23.467 29.867 29.867 49.067 6.4 21.333 8.533 38.4 8.533 53.333v57.6c0 10.667-4.267 21.333-8.533 32-6.4 10.667-14.933 19.2-23.467 27.733-10.667 8.533-21.333 14.933-34.133 19.2-29.867 12.8-59.733 10.667-89.6-4.267-17.067-8.533-29.867-19.2-40.533-29.867l-4.267-6.4 25.6-2.133c6.4 0 10.667-2.133 17.067-2.133h2.133l2.133 2.133c6.4 4.267 14.933 8.533 23.467 12.8 8.533 2.133 17.067 4.267 27.733 4.267 19.2 0 36.267-6.4 51.2-19.2s21.333-23.467 21.333-32v-57.6c0-10.667-2.133-23.467-6.4-40.533s-12.8-29.867-23.467-38.4c-4.267-4.267-6.4-6.4-8.533-12.8-2.133-4.267-2.133-10.667-2.133-14.933s2.133-10.667 4.267-14.933c2.133-4.267 6.4-8.533 10.667-10.667l87.467-46.933c0 0 2.133 0 2.133 0v0 0c0 0 2.133 0 2.133 0s0 0 2.133 0v-19.2h-61.867l8.533-6.4c4.267-2.133 6.4-6.4 8.533-10.667s4.267-10.667 4.267-14.933v-2.133h49.067c6.4 0 12.8 2.133 19.2 8.533 4.267 4.267 8.533 10.667 8.533 19.2v34.133c-4.267 2.133-8.533 8.533-19.2 14.933z" />
<glyph unicode="&#xe938;" glyph-name="Menu" d="M710.4 731.733h-396.8c-14.933 0-27.733-12.8-27.733-27.733v-512c0-14.933 12.8-27.733 27.733-27.733h396.8c14.933 0 27.733 12.8 27.733 27.733v512c0 14.933-12.8 27.733-27.733 27.733zM409.6 518.4h123.733c8.533 0 17.067-8.533 17.067-17.067s-8.533-17.067-17.067-17.067h-123.733c-8.533 0-17.067 8.533-17.067 17.067s8.533 17.067 17.067 17.067zM341.333 209.067c0-4.267-4.267-8.533-8.533-8.533s-8.533 4.267-8.533 8.533v477.867c0 4.267 4.267 8.533 8.533 8.533s8.533-4.267 8.533-8.533v-477.867zM665.6 253.867h-256c-8.533 0-17.067 8.533-17.067 17.067s8.533 17.067 17.067 17.067h256c8.533 0 17.067-8.533 17.067-17.067s-6.4-17.067-17.067-17.067zM665.6 369.067h-256c-8.533 0-17.067 8.533-17.067 17.067s8.533 17.067 17.067 17.067h256c8.533 0 17.067-8.533 17.067-17.067s-6.4-17.067-17.067-17.067zM682.667 597.333c0-4.267-2.133-6.4-4.267-8.533-2.133 0-2.133-2.133-4.267-2.133s-4.267 0-4.267 2.133l-40.533 23.467-40.533-23.467c-2.133-2.133-6.4-2.133-8.533 0-4.267 2.133-4.267 4.267-4.267 8.533v132.267h106.667v-132.267z" />
<glyph unicode="&#xe939;" glyph-name="Mic" d="M522.667 330.667c57.6 0 102.4 42.667 102.4 98.133v187.733c0 53.333-46.933 98.133-102.4 98.133-57.6 0-102.4-42.667-102.4-98.133v-189.867c-2.133-53.333 44.8-96 102.4-96zM456.533 443.733v157.867c0 40.533 29.867 74.667 66.133 74.667s66.133-34.133 66.133-74.667v-157.867c0-40.533-29.867-74.667-66.133-74.667s-66.133 34.133-66.133 74.667zM650.667 516.267v-93.867c0-64-57.6-117.333-128-117.333s-128 53.333-128 117.333v93.867h-40.533v-85.333c0-81.067 66.133-149.333 149.333-157.867v-72.533h-98.133v-38.4h234.667v38.4h-98.133v72.533c83.2 10.667 145.067 78.933 145.067 157.867v85.333h-36.267z" />
<glyph unicode="&#xe93a;" glyph-name="More-option" d="M326.4 494.933c-12.8 0-25.6-4.267-34.133-12.8s-12.8-19.2-12.8-34.133 4.267-25.6 12.8-34.133c8.533-8.533 19.2-12.8 34.133-12.8s25.6 4.267 34.133 12.8 12.8 19.2 12.8 34.133-4.267 25.6-12.8 34.133c-10.667 8.533-21.333 12.8-34.133 12.8zM512 494.933c-12.8 0-25.6-4.267-34.133-12.8s-12.8-19.2-12.8-34.133 4.267-25.6 12.8-34.133 19.2-12.8 34.133-12.8 25.6 4.267 34.133 12.8 12.8 19.2 12.8 34.133-4.267 25.6-12.8 34.133c-8.533 8.533-21.333 12.8-34.133 12.8zM731.733 482.133c-8.533 8.533-19.2 12.8-34.133 12.8s-25.6-4.267-34.133-12.8c-8.533-8.533-12.8-19.2-12.8-34.133s4.267-25.6 12.8-34.133 19.2-12.8 34.133-12.8 25.6 4.267 34.133 12.8c8.533 8.533 12.8 19.2 12.8 34.133s-4.267 25.6-12.8 34.133z" />
<glyph unicode="&#xe93b;" glyph-name="More" d="M514.133 548.267c14.933 0 27.733 6.4 38.4 17.067s17.067 23.467 17.067 38.4-6.4 27.733-17.067 38.4c-10.667 10.667-23.467 17.067-38.4 17.067s-27.733-6.4-38.4-17.067-17.067-23.467-17.067-38.4 6.4-27.733 17.067-38.4c10.667-12.8 23.467-17.067 38.4-17.067zM514.133 332.8c-14.933 0-27.733-6.4-38.4-17.067s-17.067-23.467-17.067-38.4 6.4-27.733 17.067-38.4c10.667-10.667 23.467-17.067 38.4-17.067s27.733 6.4 38.4 17.067c10.667 10.667 17.067 23.467 17.067 38.4s-6.4 27.733-17.067 38.4c-10.667 12.8-23.467 17.067-38.4 17.067zM514.133 494.933c-14.933 0-27.733-6.4-38.4-17.067s-17.067-23.467-17.067-38.4 6.4-27.733 17.067-38.4c10.667-10.667 23.467-17.067 38.4-17.067s27.733 6.4 38.4 17.067c10.667 10.667 17.067 23.467 17.067 38.4s-6.4 27.733-17.067 38.4c-10.667 10.667-23.467 17.067-38.4 17.067z" />
<glyph unicode="&#xe93c;" glyph-name="Notification" d="M759.467 302.933c-61.867 51.2-91.733 130.133-91.733 236.8 0 53.333-42.667 115.2-121.6 130.133 0 2.133 2.133 6.4 2.133 8.533 0 17.067-12.8 29.867-29.867 29.867s-29.867-12.8-29.867-29.867c0-2.133 0-6.4 2.133-8.533-78.933-12.8-121.6-76.8-121.6-130.133 0-108.8-29.867-185.6-91.733-236.8h-2.133v-2.133c0-21.333 17.067-40.533 40.533-40.533h125.867c2.133-40.533 36.267-74.667 76.8-74.667s74.667 32 76.8 74.667h125.867c21.333 0 40.533 17.067 40.533 40.533l-2.133 2.133zM520.533 217.6c0 0-2.133-2.133 0 0-27.733-2.133-49.067 19.2-49.067 46.933 0 0 0 2.133 2.133 2.133 0 0 2.133 0 2.133-2.133-2.133-25.6 17.067-44.8 44.8-46.933-2.133 2.133 0 0 0 0zM697.6 302.933h-360.533c49.067 57.6 72.533 136.533 72.533 236.8 0 36.267 34.133 89.6 106.667 89.6s106.667-53.333 106.667-89.6c2.133-100.267 25.6-177.067 74.667-236.8z" />
<glyph unicode="&#xe93d;" glyph-name="Offer-Banner" d="M558.933 354.133c40.533 0 117.333 19.2 117.333 93.867s-76.8 93.867-117.333 93.867c-12.8 0-23.467-10.667-23.467-23.467v-142.933c0-10.667 10.667-21.333 23.467-21.333zM467.2 343.467l42.667 19.2-70.4 166.4c-4.267 8.533-12.8 14.933-21.333 14.933s-17.067-6.4-21.333-14.933l-72.533-166.4 42.667-19.2 14.933 32h70.4l14.933-32zM772.267 684.8h-32l-23.467-70.4h32c12.8 0 23.467-10.667 23.467-23.467v-307.2c0-12.8-10.667-23.467-23.467-23.467h-473.6c-12.8 0-23.467 10.667-23.467 23.467v307.2c0 12.8 10.667 23.467 23.467 23.467h32l-23.467 70.4h-32v46.933h93.867v-46.933h-8.533l23.467-70.4h128v70.4h-23.467v46.933h93.867v-46.933h-23.467v-70.4h128l23.467 70.4h-8.533v46.933h93.867v-46.933zM629.333 164.267v70.4h46.933v-70.4h-46.933zM345.6 164.267v70.4h46.933v-70.4h-46.933zM403.2 424.533l14.933 34.133 14.933-34.133h-29.867zM597.333 488.533c27.733-10.667 32-27.733 32-40.533 0-29.867-25.6-40.533-46.933-44.8v89.6c6.4-2.133 10.667-2.133 14.933-4.267z" />
<glyph unicode="&#xe93e;" glyph-name="Order" d="M614.4 499.2h-206.933c-8.533 0-17.067-10.667-17.067-21.333s8.533-21.333 17.067-21.333h206.933c8.533 0 17.067 10.667 17.067 21.333s-6.4 21.333-17.067 21.333zM614.4 401.067h-206.933c-8.533 0-17.067-10.667-17.067-21.333 0-12.8 8.533-21.333 17.067-21.333h206.933c8.533 0 17.067 10.667 17.067 21.333 0 12.8-6.4 21.333-17.067 21.333zM614.4 597.333h-206.933c-8.533 0-17.067-10.667-17.067-21.333s8.533-21.333 17.067-21.333h206.933c8.533 0 17.067 10.667 17.067 21.333s-6.4 21.333-17.067 21.333zM665.6 695.467h-307.2c-36.267 0-64-27.733-64-64v-430.933h32l61.867 44.8 59.733-44.8 2.133-2.133 61.867 46.933 59.733-44.8 2.133-2.133 61.867 46.933 61.867-44.8h32v430.933c0 36.267-27.733 64-64 64zM686.933 625.067v-375.467l-55.467 40.533-2.133 2.133-59.733-46.933-57.6 44.8v2.133l-59.733-46.933-57.6 44.8-2.133 2.133-55.467-42.667v375.467c0 14.933 12.8 25.6 27.733 25.6h294.4c14.933 0 27.733-10.667 27.733-25.6z" />
<glyph unicode="&#xe93f;" glyph-name="Orders" d="M721.067 627.2l-102.4 100.267c-2.133 2.133-6.4 4.267-8.533 4.267h-283.733c-14.933 0-27.733-12.8-27.733-27.733v-512c0-14.933 12.8-27.733 27.733-27.733h369.067c14.933 0 27.733 12.8 27.733 27.733v424.533c0 0 0 0 0 0 2.133 4.267 0 6.4-2.133 10.667zM398.933 241.067c-12.8 0-23.467 10.667-23.467 23.467s10.667 23.467 23.467 23.467c12.8 0 23.467-10.667 23.467-23.467 0-14.933-10.667-23.467-23.467-23.467zM398.933 371.2c-12.8 0-23.467 10.667-23.467 23.467s10.667 23.467 23.467 23.467c12.8 0 23.467-10.667 23.467-23.467s-10.667-23.467-23.467-23.467zM398.933 477.867c-12.8 0-23.467 10.667-23.467 23.467s10.667 23.467 23.467 23.467c12.8 0 23.467-10.667 23.467-23.467s-10.667-23.467-23.467-23.467zM635.733 249.6h-160c-6.4 0-12.8 6.4-12.8 12.8s6.4 12.8 12.8 12.8h160c6.4 0 12.8-6.4 12.8-12.8s-6.4-12.8-12.8-12.8zM460.8 394.667c0 6.4 6.4 12.8 12.8 12.8h117.333c6.4 0 12.8-6.4 12.8-12.8s-6.4-12.8-12.8-12.8h-117.333c-6.4 0-12.8 6.4-12.8 12.8zM635.733 488.533h-160c-6.4 0-12.8 6.4-12.8 12.8s6.4 12.8 12.8 12.8h160c6.4 0 12.8-6.4 12.8-12.8 0-8.533-6.4-12.8-12.8-12.8zM665.6 612.267h-83.2c-2.133 0-2.133 0-2.133 2.133v83.2c0 2.133 2.133 4.267 4.267 2.133l83.2-83.2c2.133 0 0-4.267-2.133-4.267z" />
<glyph unicode="&#xe940;" glyph-name="Payment-Fill" d="M407.467 430.933h-130.133c-6.4 0-10.667-4.267-10.667-8.533s4.267-8.533 10.667-8.533h130.133c6.4 0 10.667 4.267 10.667 8.533-2.133 6.4-4.267 8.533-10.667 8.533zM277.333 482.133h78.933c6.4 0 10.667 4.267 10.667 8.533s-4.267 8.533-10.667 8.533h-78.933c-6.4 0-10.667-4.267-10.667-8.533 0-6.4 4.267-8.533 10.667-8.533zM473.6 497.067h-78.933c-6.4 0-10.667-4.267-10.667-8.533s4.267-8.533 10.667-8.533h78.933c6.4 0 10.667 4.267 10.667 8.533 0 6.4-4.267 8.533-10.667 8.533zM793.6 580.267c-6.4 8.533-14.933 12.8-25.6 14.933l-23.467 2.133v44.8c0 21.333-17.067 38.4-38.4 38.4h-445.867c-21.333 0-38.4-17.067-38.4-38.4v-302.933c0-17.067 12.8-32 27.733-36.267 0-19.2 14.933-36.267 34.133-38.4l448-49.067h4.267c19.2 0 36.267 14.933 38.4 32l29.867 305.067c-2.133 8.533-4.267 19.2-10.667 27.733zM241.067 642.133c0 10.667 8.533 19.2 19.2 19.2h445.867c10.667 0 19.2-8.533 19.2-19.2v-8.533h-484.267v8.533zM241.067 339.2v198.4h484.267v-198.4c0-10.667-8.533-19.2-19.2-19.2h-445.867c-10.667 0-19.2 8.533-19.2 19.2zM753.067 251.733c0-10.667-10.667-17.067-21.333-17.067l-445.867 49.067c-10.667 0-17.067 8.533-17.067 17.067h437.333c21.333 0 38.4 17.067 38.4 38.4v238.933l21.333-2.133c4.267 0 10.667-2.133 12.8-6.4s4.267-8.533 4.267-14.933l-29.867-302.933zM676.267 465.067h-147.2c-6.4 0-8.533-4.267-8.533-8.533v-81.067c0-6.4 4.267-8.533 8.533-8.533h147.2c6.4 0 8.533 4.267 8.533 8.533v81.067c2.133 4.267-2.133 8.533-8.533 8.533z" />
<glyph unicode="&#xe941;" glyph-name="Payment" d="M407.467 480h78.933c8.533 0 12.8 4.267 12.8 12.8 0 6.4-6.4 12.8-12.8 12.8h-78.933c-8.533 0-12.8-4.267-12.8-12.8 0-6.4 4.267-12.8 12.8-12.8zM294.4 407.467h125.867c8.533 0 12.8 4.267 12.8 12.8 0 6.4-6.4 12.8-12.8 12.8h-125.867c-8.533 0-12.8-4.267-12.8-12.8s4.267-12.8 12.8-12.8zM789.333 584.533c-6.4 8.533-17.067 14.933-27.733 14.933l-19.2 2.133v40.533c0 23.467-19.2 40.533-42.667 40.533h-433.067c-23.467 0-42.667-19.2-42.667-40.533v-296.533c0-17.067 10.667-32 27.733-38.4 0-19.2 17.067-36.267 36.267-38.4l437.333-46.933h4.267c21.333 0 40.533 14.933 42.667 34.133l27.733 298.667c0 10.667-2.133 21.333-10.667 29.867zM772.267 558.933l-27.733-298.667c0-8.533-8.533-14.933-17.067-12.8l-435.2 49.067c-6.4 0-10.667 4.267-12.8 8.533h422.4c23.467 0 42.667 19.2 42.667 40.533v230.4l17.067-2.133c4.267 0 6.4-2.133 8.533-4.267 2.133-4.267 4.267-8.533 2.133-10.667zM716.8 637.867h-465.067v6.4c0 8.533 6.4 14.933 14.933 14.933h435.2c8.533 0 14.933-6.4 14.933-14.933v-6.4zM251.733 563.2v46.933h465.067v-46.933h-465.067zM251.733 535.467h465.067v-189.867c0-8.533-6.4-14.933-14.933-14.933h-435.2c-8.533 0-14.933 6.4-14.933 14.933v189.867zM294.4 480h78.933c8.533 0 12.8 4.267 12.8 12.8 0 6.4-6.4 12.8-12.8 12.8h-78.933c-8.533 0-12.8-4.267-12.8-12.8 0-6.4 4.267-12.8 12.8-12.8zM529.067 366.933h145.067c8.533 0 12.8 4.267 12.8 12.8v78.933c0 8.533-4.267 12.8-12.8 12.8h-145.067c-8.533 0-12.8-4.267-12.8-12.8v-78.933c0-4.267 2.133-6.4 4.267-8.533s4.267-4.267 8.533-4.267zM541.867 392.533v53.333h119.467v-53.333h-119.467z" />
<glyph unicode="&#xe942;" glyph-name="Platform-Fill" d="M793.6 460.8v198.4c0 27.733-25.6 49.067-55.467 49.067h-452.267c-29.867 0-55.467-23.467-55.467-49.067v-134.4c-17.067-2.133-29.867-14.933-29.867-32v-277.333c0-17.067 14.933-32 34.133-32h226.133c17.067 0 32 12.8 34.133 27.733h83.2c10.667 0 21.333 4.267 27.733 12.8s8.533 17.067 6.4 27.733l-19.2 61.867h49.067v-98.133c0-17.067 14.933-32 34.133-32h113.067c19.2 0 34.133 14.933 34.133 32v211.2c0 19.2-12.8 32-29.867 34.133zM460.8 524.8h-200.533v134.4c0 12.8 12.8 23.467 27.733 23.467h450.133c14.933 0 27.733-10.667 27.733-23.467v-198.4h-87.467c-19.2 0-34.133-14.933-34.133-32v-14.933h-145.067v78.933c-4.267 19.2-19.2 32-38.4 32zM795.733 388.267v-130.133h-125.867v130.133h125.867zM467.2 454.4v-194.133h-238.933v194.133h238.933zM584.533 247.467c0-2.133 0-2.133 0-4.267-2.133-2.133-2.133-2.133-4.267-2.133h-81.067v10.667h87.467l-2.133-4.267zM494.933 277.333v38.4h68.267l10.667-38.4h-78.933z" />
<glyph unicode="&#xe943;" glyph-name="Platform" d="M793.6 462.933v198.4c0 27.733-25.6 51.2-55.467 51.2h-452.267c-32 0-55.467-23.467-55.467-51.2v-134.4c-17.067-2.133-29.867-14.933-29.867-32v-277.333c0-17.067 17.067-32 36.267-32h226.133c17.067 0 32 12.8 36.267 27.733h81.067c10.667 0 21.333 4.267 27.733 12.8s8.533 19.2 6.4 29.867l-17.067 59.733h42.667v-96c0-17.067 17.067-32 36.267-32h113.067c19.2 0 36.267 14.933 36.267 32v211.2c0 14.933-14.933 29.867-32 32zM460.8 526.933h-200.533v132.267c0 12.8 10.667 23.467 25.6 23.467h450.133c14.933 0 25.6-10.667 25.6-23.467v-198.4h-87.467c-19.2 0-36.267-14.933-36.267-32v-12.8h-142.933v76.8c2.133 19.2-14.933 34.133-34.133 34.133zM669.867 416v12.8c0 2.133 2.133 4.267 4.267 4.267h115.2c2.133 0 4.267-2.133 4.267-4.267v-12.8h-123.733zM793.6 388.267v-128h-123.733v128h123.733zM793.6 230.4v-12.8c0-2.133-2.133-4.267-4.267-4.267h-113.067c-2.133 0-4.267 2.133-4.267 4.267v12.8h121.6zM465.067 494.933v-12.8h-234.667v12.8c0 2.133 2.133 4.267 4.267 4.267h226.133c2.133 0 4.267-2.133 4.267-4.267zM465.067 452.267v-192h-234.667v192h234.667zM465.067 230.4v-12.8c0-2.133-2.133-4.267-4.267-4.267h-226.133c-2.133 0-4.267 2.133-4.267 4.267v12.8h234.667zM640 388.267v-44.8h-142.933v44.8h142.933zM582.4 243.2c0-2.133-2.133-2.133-4.267-2.133h-81.067v8.533h85.333v-2.133c0-2.133 0-4.267 0-4.267zM497.067 277.333v36.267h66.133l10.667-36.267h-76.8z" />
<glyph unicode="&#xe944;" glyph-name="Plus" d="M546.133 482.133v198.4h-68.267v-198.4h-198.4v-68.267h198.4v-198.4h68.267v198.4h198.4v68.267z" />
<glyph unicode="&#xe945;" glyph-name="Print" d="M736 601.6c-8.533 8.533-17.067 10.667-29.867 10.667h-29.867v53.333h-328.533v-53.333h-29.867c-12.8 0-21.333-4.267-29.867-10.667-8.533-8.533-10.667-17.067-10.667-27.733v-177.067c0-12.8 4.267-21.333 10.667-29.867 8.533-8.533 17.067-10.667 29.867-10.667h46.933v-125.867h294.4v125.867h46.933c12.8 0 21.333 4.267 29.867 10.667s10.667 17.067 10.667 29.867v177.067c2.133 10.667-2.133 19.2-10.667 27.733zM648.533 637.867v-25.6h-273.067v25.6h273.067zM364.8 488.533v-104.533h-46.933c-8.533 0-12.8 4.267-12.8 12.8v177.067c0 6.4 2.133 10.667 12.8 10.667h390.4c10.667 0 12.8-4.267 12.8-10.667v-177.067c0-8.533-4.267-12.8-12.8-12.8h-46.933v104.533h-296.533zM392.533 258.133v202.667h236.8v-202.667h-236.8z" />
<glyph unicode="&#xe946;" glyph-name="Privacy-Policy" d="M507.733 428.8c-17.067 0-32-14.933-32-32 0-12.8 8.533-23.467 19.2-29.867v-38.4h25.6v38.4c10.667 4.267 19.2 17.067 19.2 29.867 0 17.067-14.933 32-32 32zM782.933 678.4c-115.2 0-202.667 32-277.333 104.533-74.667-72.533-162.133-104.533-277.333-104.533 0-187.733-38.4-456.533 277.333-565.333 315.733 108.8 277.333 377.6 277.333 565.333zM618.667 294.4h-221.867v177.067h29.867v49.067c0 44.8 36.267 81.067 81.067 81.067s81.067-36.267 81.067-81.067v-49.067h29.867v-177.067zM507.733 576c-29.867 0-55.467-23.467-55.467-55.467v-49.067h110.933v49.067c-2.133 29.867-25.6 55.467-55.467 55.467z" />
<glyph unicode="&#xe947;" glyph-name="Privilege-Settings" d="M599.467 285.867v108.8l27.733-12.8c0 0 10.667-4.267 23.467 0-29.867 23.467-64 40.533-102.4 51.2 44.8 29.867 74.667 89.6 74.667 142.933 0 74.667-61.867 136.533-136.533 136.533s-136.533-61.867-136.533-136.533c0-53.333 29.867-113.067 76.8-142.933-106.667-27.733-187.733-119.467-187.733-189.867 0-40.533 123.733-61.867 247.467-61.867l-70.4 70.4 57.6 140.8-23.467 25.6c10.667-4.267 23.467-6.4 34.133-6.4 12.8 0 23.467 2.133 34.133 6.4l-23.467-25.6 57.6-140.8-70.4-70.4c57.6 0 115.2 4.267 160 12.8-19.2 23.467-42.667 53.333-42.667 91.733zM701.867 390.4c-40.533-42.667-83.2-25.6-83.2-25.6v-78.933c0-61.867 83.2-102.4 83.2-102.4s83.2 40.533 83.2 102.4v78.933c0 0-42.667-17.067-83.2 25.6zM701.867 206.933c-23.467 14.933-61.867 44.8-61.867 78.933v53.333c14.933 0 38.4 4.267 61.867 21.333v-153.6z" />
<glyph unicode="&#xe948;" glyph-name="Profile" d="M512 642.133c-46.933 0-83.2-40.533-83.2-91.733 0-36.267 19.2-66.133 46.933-83.2 10.667-6.4 23.467-8.533 36.267-8.533s23.467 2.133 34.133 8.533c27.733 14.933 46.933 46.933 46.933 83.2 2.133 49.067-36.267 91.733-81.067 91.733zM512 793.6c-155.733 0-281.6-125.867-281.6-281.6 0-83.2 36.267-157.867 96-211.2l185.6-200.533 185.6 200.533c57.6 51.2 96 125.867 96 211.2 0 155.733-125.867 281.6-281.6 281.6zM669.867 371.2c-2.133 36.267-38.4 70.4-89.6 85.333-19.2-17.067-42.667-27.733-68.267-27.733s-49.067 10.667-68.267 27.733c-51.2-14.933-87.467-44.8-91.733-81.067-29.867 36.267-46.933 81.067-46.933 132.267 0 115.2 93.867 209.067 209.067 209.067s209.067-93.867 211.2-209.067c-4.267-51.2-23.467-100.267-55.467-136.533z" />
<glyph unicode="&#xe949;" glyph-name="Promotions" d="M407.467 522.667h-100.267v-123.733h100.267v123.733zM369.067 430.933h-29.867v59.733h29.867v-59.733zM247.467 497.067v-70.4c0-14.933 12.8-25.6 25.6-25.6h8.533v123.733h-8.533c-12.8-2.133-25.6-12.8-25.6-27.733zM409.6 249.6h-4.267c-4.267 0-8.533 2.133-8.533 6.4l-27.733 125.867h-61.867l32-149.333h72.533c4.267 0 8.533 4.267 8.533 8.533-2.133 4.267-6.4 8.533-10.667 8.533zM710.4 580.267l61.867 36.267c4.267 2.133 6.4 8.533 4.267 12.8s-8.533 6.4-12.8 4.267l-61.867-36.267c-4.267-2.133-6.4-8.533-4.267-12.8 2.133-6.4 8.533-8.533 12.8-4.267zM708.267 407.467l53.333-10.667c4.267 0 8.533 2.133 10.667 6.4 0 4.267-2.133 8.533-6.4 10.667l-53.333 10.667c-4.267 0-8.533-2.133-10.667-6.4-2.133-6.4 2.133-10.667 6.4-10.667zM768 305.067l-61.867 36.267c-4.267 2.133-10.667 0-12.8-4.267s0-10.667 4.267-12.8l61.867-36.267c4.267-2.133 10.667 0 12.8 4.267 2.133 6.4 0 10.667-4.267 12.8zM765.867 524.8l-53.333-10.667c-4.267 0-8.533-6.4-6.4-10.667 0-4.267 6.4-8.533 10.667-6.4l53.333 10.667c4.267 0 8.533 6.4 6.4 10.667s-6.4 8.533-10.667 6.4zM437.333 396.8c51.2-17.067 91.733-46.933 128-87.467v302.933c-38.4-38.4-76.8-70.4-128-87.467v-128zM635.733 426.667l36.267 6.4v55.467l-36.267 6.4zM605.867 663.467c-6.4 0-12.8-6.4-12.8-12.8v-379.733c0-6.4 6.4-12.8 12.8-12.8s12.8 6.4 12.8 12.8v379.733c0 8.533-6.4 12.8-12.8 12.8z" />
<glyph unicode="&#xe94a;" glyph-name="Push-Notification" d="M635.733 554.667c32 0 57.6-25.6 57.6-57.6 0-6.4 6.4-12.8 12.8-12.8s12.8 6.4 12.8 12.8c0 44.8-36.267 81.067-81.067 81.067-6.4 0-12.8-6.4-12.8-12.8-2.133-6.4 4.267-10.667 10.667-10.667zM635.733 514.133c8.533 0 17.067-8.533 17.067-17.067 0-6.4 6.4-12.8 12.8-12.8s12.8 6.4 12.8 12.8c0 23.467-19.2 42.667-42.667 42.667-6.4 0-12.8-6.4-12.8-12.8s6.4-12.8 12.8-12.8zM723.2 627.2h-115.2v106.667c0 17.067-14.933 32-32 32h-275.2c-17.067 0-32-14.933-32-32v-571.733c0-17.067 14.933-32 32-32h275.2c17.067 0 32 14.933 32 32v164.267h115.2c17.067 0 32 14.933 32 32v236.8c2.133 19.2-12.8 32-32 32zM462.933 172.8c0-4.267-2.133-6.4-6.4-6.4h-38.4c-4.267 0-6.4 2.133-6.4 6.4s2.133 6.4 6.4 6.4h38.4c4.267-2.133 6.4-4.267 6.4-6.4zM422.4 723.2c0 4.267 2.133 6.4 6.4 6.4h19.2c4.267 0 6.4-2.133 6.4-6.4s-2.133-6.4-6.4-6.4h-19.2c-4.267 2.133-6.4 4.267-6.4 6.4zM420.267 305.067v217.6c0 6.4-6.4 12.8-12.8 12.8s-12.8-6.4-12.8-12.8v-241.067c0-4.267 2.133-8.533 6.4-10.667s8.533-2.133 12.8 2.133l74.667 57.6h91.733v-117.333h-288v469.333h290.133v-53.333h-155.733c-17.067 0-32-14.933-32-32v-29.867c0-6.4 6.4-12.8 12.8-12.8s12.8 6.4 12.8 12.8v29.867c0 4.267 4.267 6.4 6.4 6.4h296.533c4.267 0 6.4-4.267 6.4-6.4v-236.8c0-4.267-4.267-6.4-6.4-6.4h-236.8c-2.133 0-4.267 0-6.4-2.133l-59.733-46.933zM497.067 396.8h46.933c2.133-17.067 14.933-29.867 32-29.867s29.867 12.8 32 29.867h46.933c6.4 0 12.8 6.4 12.8 12.8s-6.4 12.8-12.8 12.8h-8.533c-2.133 2.133-8.533 8.533-8.533 36.267 0 70.4-38.4 81.067-61.867 81.067s-61.867-10.667-61.867-81.067c0-27.733-6.4-36.267-8.533-36.267h-8.533c-6.4 0-12.8-6.4-12.8-12.8 0-8.533 6.4-12.8 12.8-12.8zM569.6 396.8h12.8c0-2.133-4.267-4.267-6.4-4.267-2.133-2.133-6.4 0-6.4 4.267zM499.2 497.067c0 8.533 8.533 17.067 17.067 17.067 6.4 0 12.8 6.4 12.8 12.8s-6.4 12.8-12.8 12.8c-23.467 0-42.667-19.2-42.667-42.667 0-6.4 6.4-12.8 12.8-12.8 8.533 0 12.8 6.4 12.8 12.8zM516.267 554.667c6.4 0 12.8 6.4 12.8 12.8s-6.4 12.8-12.8 12.8c-44.8 0-81.067-36.267-81.067-81.067 0-6.4 6.4-12.8 12.8-12.8s12.8 6.4 12.8 12.8c0 29.867 25.6 55.467 55.467 55.467z" />
<glyph unicode="&#xe94b;" glyph-name="Radio-Button-Fill" d="M512 563.2c-32 0-59.733-10.667-81.067-34.133-21.333-21.333-34.133-49.067-34.133-81.067s10.667-59.733 34.133-81.067 49.067-34.133 81.067-34.133 59.733 10.667 81.067 34.133 34.133 49.067 34.133 81.067c0 32-10.667 59.733-34.133 81.067-21.333 23.467-49.067 34.133-81.067 34.133zM674.133 610.133c-44.8 44.8-100.267 68.267-162.133 68.267s-117.333-23.467-162.133-68.267c-44.8-44.8-68.267-100.267-68.267-162.133s23.467-117.333 68.267-162.133c44.8-44.8 100.267-68.267 162.133-68.267s117.333 23.467 162.133 68.267c44.8 44.8 68.267 100.267 68.267 162.133s-21.333 117.333-68.267 162.133zM642.133 317.867c-36.267-36.267-78.933-53.333-130.133-53.333s-93.867 17.067-130.133 53.333c-36.267 36.267-53.333 78.933-53.333 130.133s17.067 93.867 53.333 130.133 78.933 53.333 130.133 53.333 93.867-17.067 130.133-53.333 53.333-78.933 53.333-130.133-17.067-93.867-53.333-130.133z" />
<glyph unicode="&#xe94c;" glyph-name="Radio-Button" d="M674.133 610.133c-44.8 44.8-100.267 68.267-162.133 68.267s-117.333-23.467-162.133-68.267c-44.8-44.8-68.267-100.267-68.267-162.133s23.467-117.333 68.267-162.133c44.8-44.8 100.267-68.267 162.133-68.267s117.333 23.467 162.133 68.267c44.8 44.8 68.267 100.267 68.267 162.133s-21.333 117.333-68.267 162.133zM642.133 317.867c-36.267-36.267-78.933-53.333-130.133-53.333s-93.867 17.067-130.133 53.333c-36.267 36.267-53.333 78.933-53.333 130.133s17.067 93.867 53.333 130.133 78.933 53.333 130.133 53.333 93.867-17.067 130.133-53.333 53.333-78.933 53.333-130.133-17.067-93.867-53.333-130.133z" />
<glyph unicode="&#xe94d;" glyph-name="Reorder" d="M296.533 328.533h433.067v-46.933h-433.067v46.933zM296.533 424.533h433.067v-49.067h-433.067v49.067zM296.533 616.533h433.067v-46.933h-433.067v46.933zM296.533 520.533h433.067v-49.067h-433.067v49.067z" />
<glyph unicode="&#xe94e;" glyph-name="Right" d="M512 680.533l-40.533-40.533 162.133-162.133h-354.133v-59.733h354.133l-162.133-162.133 40.533-40.533 232.533 232.533z" />
<glyph unicode="&#xe94f;" glyph-name="Search" d="M625.067 377.6l4.267 8.533c19.2 32 29.867 66.133 29.867 102.4 0 53.333-19.2 98.133-55.467 136.533s-81.067 57.6-134.4 57.6-98.133-19.2-136.533-55.467c-36.267-38.4-55.467-83.2-55.467-136.533s19.2-98.133 55.467-136.533 83.2-57.6 136.533-57.6c36.267 0 70.4 10.667 104.533 32l8.533 6.4 136.533-136.533 42.667 42.667-136.533 136.533zM576 384c-29.867-29.867-66.133-44.8-106.667-44.8s-76.8 14.933-106.667 44.8-44.8 66.133-44.8 106.667 14.933 76.8 44.8 106.667 66.133 44.8 106.667 44.8 76.8-14.933 106.667-44.8c29.867-29.867 44.8-66.133 44.8-106.667 2.133-40.533-12.8-76.8-44.8-106.667z" />
<glyph unicode="&#xe950;" glyph-name="Send" d="M774.4 701.867c-2.133 4.267-6.4 8.533-12.8 8.533-2.133 0-4.267 0-6.4 0s-4.267-2.133-6.4-2.133l-482.133-204.8c-10.667-4.267-14.933-10.667-17.067-19.2 0-8.533 4.267-14.933 12.8-21.333l198.4-61.867 66.133-202.667c2.133-4.267 4.267-8.533 8.533-10.667s6.4-4.267 10.667-4.267c4.267 0 8.533 2.133 10.667 4.267 4.267 2.133 6.4 6.4 8.533 12.8l206.933 482.133c2.133 8.533 2.133 14.933 2.133 19.2zM548.267 268.8l-57.6 166.4-166.4 51.2 386.133 162.133-162.133-379.733z" />
<glyph unicode="&#xe951;" glyph-name="Settings-1" d="M791.467 492.8l-2.133 14.933-44.8 14.933c-4.267 12.8-8.533 23.467-14.933 36.267l21.333 42.667-8.533 12.8c-17.067 25.6-38.4 46.933-64 64l-12.8 8.533-42.667-21.333c-10.667 6.4-23.467 10.667-36.267 14.933l-14.933 44.8-14.933 2.133c-17.067 2.133-32 4.267-44.8 4.267s-27.733-2.133-44.8-4.267l-14.933-2.133-14.933-44.8c-12.8-4.267-23.467-8.533-36.267-14.933l-42.667 21.333-12.8-8.533c-23.467-17.067-44.8-38.4-64-64l-8.533-12.8 21.333-42.667c-6.4-10.667-10.667-23.467-14.933-36.267l-44.8-14.933-2.133-14.933c-2.133-17.067-4.267-32-4.267-44.8s2.133-27.733 4.267-44.8l2.133-14.933 44.8-14.933c4.267-12.8 8.533-23.467 14.933-36.267l-21.333-42.667 8.533-12.8c8.533-12.8 19.2-23.467 29.867-34.133 8.533-8.533 21.333-19.2 34.133-29.867l12.8-8.533 42.667 21.333c10.667-6.4 23.467-10.667 36.267-14.933l14.933-44.8 14.933-2.133c17.067-2.133 32-4.267 44.8-4.267s27.733 2.133 44.8 4.267l14.933 2.133 14.933 44.8c12.8 4.267 23.467 8.533 36.267 14.933l42.667-21.333 12.8 8.533c12.8 8.533 25.6 19.2 34.133 29.867 10.667 8.533 19.2 21.333 29.867 34.133l8.533 12.8-21.333 42.667c6.4 10.667 10.667 23.467 14.933 36.267l44.8 14.933 2.133 14.933c2.133 17.067 4.267 32 4.267 44.8s0 27.733-4.267 44.8zM750.933 448c0-8.533 0-17.067-2.133-25.6l-23.467-6.4-19.2-6.4-6.4-19.2c-4.267-10.667-8.533-21.333-12.8-32l-10.667-17.067 19.2-38.4c-6.4-6.4-10.667-12.8-17.067-19.2v0c-6.4-6.4-12.8-10.667-19.2-17.067l-38.4 19.2-17.067-8.533c-10.667-6.4-21.333-10.667-34.133-12.8l-19.2-6.4-6.4-19.2-8.533-21.333c-8.533-2.133-17.067-2.133-25.6-2.133s-17.067 0-25.6 2.133l-6.4 21.333-6.4 19.2-19.2 6.4c-10.667 4.267-23.467 8.533-32 12.8l-17.067 8.533-19.2-14.933-21.333-10.667c-6.4 6.4-12.8 10.667-19.2 17.067s-12.8 12.8-17.067 19.2l19.2 38.4-8.533 17.067c-6.4 10.667-10.667 21.333-12.8 32l-6.4 19.2-40.533 12.8c-2.133 8.533-2.133 17.067-2.133 25.6s0 17.067 2.133 25.6l40.533 12.8 6.4 19.2c4.267 10.667 8.533 21.333 12.8 32l8.533 19.2-10.667 25.6-10.667 21.333c10.667 12.8 23.467 25.6 36.267 36.267l38.4-19.2 19.2 8.533c10.667 6.4 21.333 10.667 32 12.8l19.2 6.4 6.4 19.2 8.533 23.467c8.533 0 19.2 2.133 25.6 2.133 8.533 0 17.067 0 25.6-2.133l12.8-42.667 19.2-6.4c10.667-4.267 23.467-8.533 34.133-12.8l17.067-10.667 38.4 19.2c12.8-10.667 25.6-23.467 38.4-38.4l-19.2-38.4 8.533-17.067c6.4-10.667 10.667-21.333 14.933-32l6.4-19.2 19.2-6.4 23.467-8.533c2.133-6.4 2.133-14.933 2.133-23.467v0zM512 556.8c-29.867 0-55.467-10.667-76.8-32s-32-46.933-32-76.8 10.667-55.467 32-76.8c21.333-21.333 46.933-32 76.8-32s55.467 10.667 76.8 32c21.333 21.333 32 46.933 32 76.8s-10.667 55.467-32 76.8-46.933 32-76.8 32zM556.8 403.2c-12.8-12.8-27.733-19.2-44.8-19.2s-32 6.4-44.8 19.2c-12.8 12.8-19.2 27.733-19.2 44.8s6.4 32 19.2 44.8c12.8 12.8 27.733 19.2 44.8 19.2s32-6.4 44.8-19.2c12.8-12.8 19.2-27.733 19.2-44.8s-6.4-32-19.2-44.8z" />
<glyph unicode="&#xe952;" glyph-name="Settings" d="M550.4 302.933l-10.667 2.133c-2.133 6.4-4.267 14.933-8.533 21.333l6.4 6.4c4.267 6.4 4.267 14.933 0 19.2l-10.667 10.667c-6.4 6.4-12.8 6.4-19.2 2.133l-6.4-6.4c-6.4 4.267-14.933 6.4-21.333 8.533v8.533c0 8.533-6.4 12.8-14.933 12.8h-14.933c-8.533 0-14.933-6.4-14.933-12.8l-2.133-8.533c-8.533-2.133-14.933-4.267-23.467-8.533l-8.533 6.4c-6.4 4.267-14.933 4.267-19.2 0l-10.667-10.667c-6.4-6.4-6.4-12.8-2.133-19.2l6.4-8.533c-4.267-6.4-6.4-12.8-8.533-21.333h-10.667c-8.533 0-12.8-6.4-12.8-14.933v-14.933c0-8.533 6.4-14.933 12.8-14.933l10.667-2.133c2.133-6.4 4.267-12.8 8.533-19.2l-6.4-8.533c-4.267-6.4-4.267-14.933 0-19.2l10.667-10.667c4.267-6.4 12.8-6.4 19.2-2.133l8.533 6.4c6.4-4.267 12.8-6.4 19.2-8.533l2.133-10.667c0-8.533 6.4-12.8 14.933-12.8h14.933c8.533 0 14.933 6.4 14.933 12.8l2.133 10.667c8.533 2.133 14.933 4.267 21.333 8.533l8.533-6.4c6.4-4.267 14.933-4.267 19.2 0l10.667 10.667c6.4 6.4 6.4 12.8 2.133 19.2l-6.4 8.533c4.267 6.4 6.4 12.8 8.533 21.333h10.667c8.533 0 12.8 6.4 12.8 14.933v14.933c0 8.533-6.4 14.933-12.8 14.933zM452.267 243.2c-21.333 0-38.4 19.2-38.4 40.533s19.2 38.4 40.533 38.4c21.333 0 38.4-19.2 38.4-40.533s-19.2-38.4-40.533-38.4zM789.333 443.733c0 8.533-6.4 12.8-14.933 12.8h-14.933c-2.133 8.533-6.4 17.067-12.8 25.6l8.533 12.8c4.267 6.4 2.133 14.933-2.133 19.2l-19.2 14.933c-6.4 4.267-14.933 4.267-19.2 0l-10.667-8.533c-8.533 4.267-19.2 6.4-27.733 8.533l-2.133 14.933c-2.133 6.4-8.533 12.8-14.933 12.8l-25.6-2.133c-8.533 0-12.8-6.4-12.8-14.933v-14.933c-8.533-4.267-19.2-8.533-25.6-14.933l-12.8 8.533c-6.4 4.267-14.933 2.133-19.2-2.133l-14.933-19.2c-4.267-6.4-4.267-14.933 0-19.2l10.667-10.667c-4.267-8.533-6.4-17.067-8.533-25.6l-14.933-4.267c-6.4-2.133-12.8-8.533-12.8-14.933l2.133-25.6c0-8.533 6.4-12.8 14.933-12.8h17.067c2.133-8.533 6.4-14.933 12.8-23.467l-14.933-17.067c-4.267-6.4-2.133-14.933 2.133-19.2l19.2-14.933c6.4-4.267 14.933-4.267 19.2 0l12.8 10.667c8.533-4.267 17.067-6.4 25.6-8.533l4.267-17.067c2.133-6.4 8.533-12.8 14.933-12.8l25.6 2.133c8.533 0 12.8 6.4 12.8 14.933v17.067c8.533 4.267 17.067 8.533 25.6 12.8l12.8-8.533c6.4-4.267 14.933-2.133 19.2 2.133l19.2 19.2c4.267 6.4 4.267 14.933 0 19.2l-10.667 10.667c4.267 8.533 6.4 17.067 8.533 27.733l14.933 2.133c6.4 2.133 12.8 8.533 12.8 14.933l-4.267 27.733zM659.2 371.2c-25.6-2.133-49.067 17.067-53.333 44.8-2.133 25.6 17.067 51.2 44.8 53.333 25.6 2.133 49.067-17.067 53.333-44.8 2.133-27.733-17.067-51.2-44.8-53.333zM364.8 407.467c0-8.533 6.4-12.8 14.933-12.8h36.267c8.533 0 14.933 6.4 14.933 12.8l2.133 23.467c10.667 2.133 21.333 6.4 32 12.8l17.067-14.933c6.4-4.267 14.933-4.267 19.2 2.133l25.6 25.6c6.4 6.4 6.4 14.933 2.133 19.2l-12.8 17.067c6.4 10.667 10.667 21.333 12.8 32l21.333 2.133c8.533 0 12.8 6.4 12.8 14.933v36.267c0 8.533-6.4 14.933-12.8 14.933l-21.333 2.133c-2.133 10.667-6.4 21.333-12.8 32l12.8 17.067c4.267 6.4 4.267 14.933-2.133 19.2l-25.6 25.6c-6.4 6.4-14.933 6.4-19.2 2.133l-14.933-12.8c-10.667 6.4-21.333 10.667-32 12.8l-2.133 21.333c0 8.533-6.4 12.8-14.933 12.8h-36.267c-8.533 0-14.933-6.4-14.933-12.8l-2.133-21.333c-12.8-4.267-23.467-8.533-34.133-14.933l-17.067 12.8c-6.4 4.267-14.933 4.267-19.2-2.133l-25.6-25.6c-6.4-6.4-6.4-14.933-2.133-19.2l12.8-17.067c-6.4-10.667-10.667-21.333-12.8-32l-21.333-2.133c-8.533 0-12.8-6.4-12.8-14.933v-36.267c0-8.533 6.4-14.933 12.8-14.933l23.467-2.133c2.133-10.667 6.4-19.2 12.8-29.867l-14.933-19.2c-4.267-6.4-4.267-14.933 2.133-19.2l25.6-25.6c6.4-6.4 14.933-6.4 19.2-2.133l19.2 14.933c8.533-6.4 19.2-10.667 29.867-12.8l2.133-21.333zM339.2 561.067c0 32 25.6 59.733 59.733 59.733 32 0 59.733-25.6 59.733-59.733 0-32-25.6-59.733-59.733-59.733-32 0-59.733 25.6-59.733 59.733z" />
<glyph unicode="&#xe953;" glyph-name="Sms-Scheduler" d="M202.667 539.733v-347.733l206.933 194.133zM731.733 518.4v211.2h-439.467v-211.2l219.733-162.133 219.733 162.133zM657.067 593.067c-2.133 2.133-8.533 4.267-17.067 6.4-12.8 2.133-23.467 6.4-29.867 12.8-6.4 4.267-8.533 12.8-8.533 23.467s4.267 19.2 10.667 25.6c8.533 6.4 17.067 8.533 29.867 8.533 6.4 0 14.933-2.133 23.467-4.267s14.933-6.4 19.2-10.667l-12.8-19.2c-10.667 8.533-19.2 10.667-29.867 10.667-4.267 0-8.533 0-10.667-2.133s-4.267-4.267-4.267-8.533 2.133-6.4 4.267-8.533c2.133-2.133 10.667-4.267 21.333-6.4s19.2-6.4 25.6-12.8c6.4-4.267 8.533-12.8 8.533-23.467s-4.267-19.2-10.667-25.6c-8.533-6.4-17.067-8.533-29.867-8.533-17.067 0-34.133 6.4-49.067 19.2l14.933 19.2c12.8-10.667 23.467-17.067 34.133-17.067 4.267 0 8.533 0 10.667 2.133s4.267 4.267 4.267 8.533-2.133 8.533-4.267 10.667zM416 561.067c-8.533-6.4-17.067-8.533-29.867-8.533-17.067 0-34.133 6.4-49.067 19.2l14.933 19.2c12.8-10.667 23.467-17.067 34.133-17.067 4.267 0 8.533 0 10.667 2.133s4.267 4.267 4.267 8.533-2.133 6.4-4.267 8.533c-2.133 2.133-8.533 4.267-17.067 6.4-12.8 2.133-23.467 6.4-29.867 12.8-6.4 4.267-8.533 12.8-8.533 23.467s4.267 19.2 10.667 25.6c8.533 6.4 17.067 8.533 29.867 8.533 8.533 0 14.933-2.133 23.467-4.267s14.933-6.4 19.2-10.667l-12.8-19.2c-10.667 8.533-19.2 10.667-29.867 10.667-4.267 0-8.533 0-10.667-2.133s-4.267-4.267-4.267-8.533 2.133-6.4 4.267-8.533c2.133-2.133 10.667-4.267 21.333-6.4s19.2-6.4 25.6-12.8c6.4-4.267 8.533-12.8 8.533-23.467 2.133-10.667-2.133-17.067-10.667-23.467zM475.733 622.933v-72.533h-25.6v113.067h34.133l29.867-61.867 29.867 61.867h32v-113.067h-25.6v72.533l-29.867-61.867h-14.933l-29.867 61.867zM618.667 390.4l202.667-198.4v347.733zM512 311.467l-72.533 53.333-209.067-198.4h563.2l-204.8 200.533z" />
<glyph unicode="&#xe954;" glyph-name="SMS" d="M608 516.267c-12.8 0-25.6-10.667-25.6-25.6s10.667-25.6 25.6-25.6 25.6 10.667 25.6 25.6-10.667 25.6-25.6 25.6zM522.667 516.267c-12.8 0-25.6-10.667-25.6-25.6s10.667-25.6 25.6-25.6c12.8 0 25.6 10.667 25.6 25.6s-12.8 25.6-25.6 25.6zM437.333 516.267c-12.8 0-25.6-10.667-25.6-25.6s10.667-25.6 25.6-25.6 25.6 10.667 25.6 25.6-12.8 25.6-25.6 25.6zM738.133 665.6h-452.267c-19.2 0-36.267-14.933-36.267-36.267v-279.467c0-19.2 14.933-36.267 36.267-36.267h29.867v-72.533c0-6.4 4.267-10.667 8.533-12.8 2.133 0 4.267 0 4.267 0 4.267 0 6.4 2.133 10.667 4.267l81.067 81.067h315.733c19.2 0 36.267 14.933 36.267 36.267v281.6c0 19.2-14.933 34.133-34.133 34.133zM744.533 352c0-4.267-4.267-8.533-8.533-8.533h-320c-4.267 0-6.4-2.133-10.667-4.267l-61.867-61.867v51.2c0 8.533-6.4 14.933-14.933 14.933h-42.667c-4.267 0-8.533 4.267-8.533 8.533v279.467c0 4.267 4.267 8.533 8.533 8.533h450.133c4.267 0 8.533-4.267 8.533-8.533v-279.467z" />
<glyph unicode="&#xe955;" glyph-name="Sort" d="M241.067 326.4h128v-59.733h-128v59.733zM241.067 629.333h541.867v-59.733h-541.867v59.733zM241.067 477.867h283.733v-59.733h-283.733v59.733z" />
<glyph unicode="&#xe956;" glyph-name="Star" d="M512 302.933l-136.533-74.667 27.733 160-110.933 110.933 151.467 23.467 68.267 145.067 68.267-145.067 151.467-23.467-110.933-110.933 27.733-160z" />
<glyph unicode="&#xe957;" glyph-name="Stats" d="M535.467 471.467v260.267c72.533 0 136.533-29.867 185.6-76.8 46.933-46.933 76.8-113.067 76.8-185.6h-262.4zM488.533 424.533h260.267c0-145.067-117.333-260.267-260.267-260.267-72.533 0-136.533 29.867-185.6 76.8-46.933 46.933-76.8 113.067-76.8 185.6 0 145.067 117.333 260.267 260.267 260.267v-262.4z" />
</font>
</defs>
</svg>
